<?xml version="1.0" encoding="utf-8" standalone="no"?>
<!DOCTYPE svg PUBLIC "-//W3C//DTD SVG 1.1//EN"
  "http://www.w3.org/Graphics/SVG/1.1/DTD/svg11.dtd">
<svg xmlns:xlink="http://www.w3.org/1999/xlink" width="460.8pt" height="345.6pt" viewBox="0 0 460.8 345.6" xmlns="http://www.w3.org/2000/svg" version="1.1">
 <metadata>
  <rdf:RDF xmlns:dc="http://purl.org/dc/elements/1.1/" xmlns:cc="http://creativecommons.org/ns#" xmlns:rdf="http://www.w3.org/1999/02/22-rdf-syntax-ns#">
   <cc:Work>
    <dc:type rdf:resource="http://purl.org/dc/dcmitype/StillImage"/>
    <dc:date>2025-07-04T07:37:39.010980</dc:date>
    <dc:format>image/svg+xml</dc:format>
    <dc:creator>
     <cc:Agent>
      <dc:title>Matplotlib v3.7.2, https://matplotlib.org/</dc:title>
     </cc:Agent>
    </dc:creator>
   </cc:Work>
  </rdf:RDF>
 </metadata>
 <defs>
  <style type="text/css">*{stroke-linejoin: round; stroke-linecap: butt}</style>
 </defs>
 <g id="figure_1">
  <g id="patch_1">
   <path d="M 0 345.6 
L 460.8 345.6 
L 460.8 0 
L 0 0 
z
" style="fill: #ffffff"/>
  </g>
  <g id="axes_1">
   <g id="patch_2">
    <path d="M 57.6 307.584 
L 414.72 307.584 
L 414.72 41.472 
L 57.6 41.472 
z
" style="fill: #ffffff"/>
   </g>
   <g id="PolyCollection_1">
    <defs>
     <path id="mc83c86ce09" d="M 73.832727 -208.650829 
L 73.832727 -208.650829 
L 91.869091 -197.670159 
L 109.905455 -190.772786 
L 127.941818 -198.813696 
L 145.978182 -196.627014 
L 164.014545 -212.248763 
L 182.050909 -241.778612 
L 200.087273 -241.506554 
L 218.123636 -251.842821 
L 236.16 -255.228555 
L 254.196364 -278.405724 
L 272.232727 -278.442307 
L 290.269091 -281.208363 
L 308.305455 -287.981091 
L 326.341818 -284.110195 
L 344.378182 -285.887422 
L 362.414545 -290.550441 
L 380.450909 -279.153968 
L 398.487273 -292.032 
L 398.487273 -292.032 
L 398.487273 -292.032 
L 380.450909 -279.153968 
L 362.414545 -290.550441 
L 344.378182 -285.887422 
L 326.341818 -284.110195 
L 308.305455 -287.981091 
L 290.269091 -281.208363 
L 272.232727 -278.442307 
L 254.196364 -278.405724 
L 236.16 -255.228555 
L 218.123636 -251.842821 
L 200.087273 -241.506554 
L 182.050909 -241.778612 
L 164.014545 -212.248763 
L 145.978182 -196.627014 
L 127.941818 -198.813696 
L 109.905455 -190.772786 
L 91.869091 -197.670159 
L 73.832727 -208.650829 
z
" style="stroke: #fbe9e9"/>
    </defs>
    <g clip-path="url(#p65993bbcb5)">
     <use xlink:href="#mc83c86ce09" x="0" y="345.6" style="fill: #fbe9e9; stroke: #fbe9e9"/>
    </g>
   </g>
   <g id="PolyCollection_2">
    <defs>
     <path id="m0f64c2be21" d="M 73.832727 -51.65909 
L 73.832727 -51.65909 
L 91.869091 -51.496697 
L 109.905455 -52.144603 
L 127.941818 -54.127188 
L 145.978182 -53.480026 
L 164.014545 -55.447807 
L 182.050909 -57.176069 
L 200.087273 -58.868678 
L 218.123636 -58.957444 
L 236.16 -59.220627 
L 254.196364 -60.187394 
L 272.232727 -59.386266 
L 290.269091 -60.239598 
L 308.305455 -60.463084 
L 326.341818 -60.185733 
L 344.378182 -60.058713 
L 362.414545 -60.50337 
L 380.450909 -60.31952 
L 398.487273 -61.039084 
L 398.487273 -61.039084 
L 398.487273 -61.039084 
L 380.450909 -60.31952 
L 362.414545 -60.50337 
L 344.378182 -60.058713 
L 326.341818 -60.185733 
L 308.305455 -60.463084 
L 290.269091 -60.239598 
L 272.232727 -59.386266 
L 254.196364 -60.187394 
L 236.16 -59.220627 
L 218.123636 -58.957444 
L 200.087273 -58.868678 
L 182.050909 -57.176069 
L 164.014545 -55.447807 
L 145.978182 -53.480026 
L 127.941818 -54.127188 
L 109.905455 -52.144603 
L 91.869091 -51.496697 
L 73.832727 -51.65909 
z
" style="stroke: #e5f2fb"/>
    </defs>
    <g clip-path="url(#p65993bbcb5)">
     <use xlink:href="#m0f64c2be21" x="0" y="345.6" style="fill: #e5f2fb; stroke: #e5f2fb"/>
    </g>
   </g>
   <g id="PolyCollection_3">
    <defs>
     <path id="ma18077213c" d="M 73.832727 -51.173057 
L 73.832727 -51.173057 
L 91.869091 -52.279749 
L 109.905455 -55.328138 
L 127.941818 -57.207808 
L 145.978182 -54.452835 
L 164.014545 -55.819569 
L 182.050909 -57.174526 
L 200.087273 -59.163498 
L 218.123636 -59.316625 
L 236.16 -58.252742 
L 254.196364 -59.859684 
L 272.232727 -60.449978 
L 290.269091 -60.848278 
L 308.305455 -60.668917 
L 326.341818 -60.231404 
L 344.378182 -60.728916 
L 362.414545 -59.988123 
L 380.450909 -59.508209 
L 398.487273 -60.741822 
L 398.487273 -60.741822 
L 398.487273 -60.741822 
L 380.450909 -59.508209 
L 362.414545 -59.988123 
L 344.378182 -60.728916 
L 326.341818 -60.231404 
L 308.305455 -60.668917 
L 290.269091 -60.848278 
L 272.232727 -60.449978 
L 254.196364 -59.859684 
L 236.16 -58.252742 
L 218.123636 -59.316625 
L 200.087273 -59.163498 
L 182.050909 -57.174526 
L 164.014545 -55.819569 
L 145.978182 -54.452835 
L 127.941818 -57.207808 
L 109.905455 -55.328138 
L 91.869091 -52.279749 
L 73.832727 -51.173057 
z
" style="stroke: #f2f2f2"/>
    </defs>
    <g clip-path="url(#p65993bbcb5)">
     <use xlink:href="#ma18077213c" x="0" y="345.6" style="fill: #f2f2f2; stroke: #f2f2f2"/>
    </g>
   </g>
   <g id="PolyCollection_4">
    <defs>
     <path id="md107ec475b" d="M 73.832727 -52.160171 
L 73.832727 -52.160171 
L 91.869091 -51.823466 
L 109.905455 -53.859488 
L 127.941818 -53.743166 
L 145.978182 -52.138876 
L 164.014545 -56.295633 
L 182.050909 -56.755288 
L 200.087273 -58.316352 
L 218.123636 -58.098367 
L 236.16 -59.006949 
L 254.196364 -59.827227 
L 272.232727 -59.243233 
L 290.269091 -60.1708 
L 308.305455 -60.504647 
L 326.341818 -59.86642 
L 344.378182 -60.604167 
L 362.414545 -60.768148 
L 380.450909 -60.229564 
L 398.487273 -60.72803 
L 398.487273 -60.72803 
L 398.487273 -60.72803 
L 380.450909 -60.229564 
L 362.414545 -60.768148 
L 344.378182 -60.604167 
L 326.341818 -59.86642 
L 308.305455 -60.504647 
L 290.269091 -60.1708 
L 272.232727 -59.243233 
L 254.196364 -59.827227 
L 236.16 -59.006949 
L 218.123636 -58.098367 
L 200.087273 -58.316352 
L 182.050909 -56.755288 
L 164.014545 -56.295633 
L 145.978182 -52.138876 
L 127.941818 -53.743166 
L 109.905455 -53.859488 
L 91.869091 -51.823466 
L 73.832727 -52.160171 
z
" style="stroke: #e7f8e7"/>
    </defs>
    <g clip-path="url(#p65993bbcb5)">
     <use xlink:href="#md107ec475b" x="0" y="345.6" style="fill: #e7f8e7; stroke: #e7f8e7"/>
    </g>
   </g>
   <g id="PolyCollection_5">
    <defs>
     <path id="m1d39d26ae8" d="M 73.832727 -50.112 
L 73.832727 -50.112 
L 91.869091 -51.301615 
L 109.905455 -52.434792 
L 127.941818 -53.57415 
L 145.978182 -52.631398 
L 164.014545 -56.142669 
L 182.050909 -56.355425 
L 200.087273 -57.974813 
L 218.123636 -57.82823 
L 236.16 -58.257123 
L 254.196364 -59.514674 
L 272.232727 -59.664579 
L 290.269091 -60.784071 
L 308.305455 -60.911801 
L 326.341818 -61.266727 
L 344.378182 -60.416833 
L 362.414545 -60.473872 
L 380.450909 -59.625936 
L 398.487273 -61.120722 
L 398.487273 -61.120722 
L 398.487273 -61.120722 
L 380.450909 -59.625936 
L 362.414545 -60.473872 
L 344.378182 -60.416833 
L 326.341818 -61.266727 
L 308.305455 -60.911801 
L 290.269091 -60.784071 
L 272.232727 -59.664579 
L 254.196364 -59.514674 
L 236.16 -58.257123 
L 218.123636 -57.82823 
L 200.087273 -57.974813 
L 182.050909 -56.355425 
L 164.014545 -56.142669 
L 145.978182 -52.631398 
L 127.941818 -53.57415 
L 109.905455 -52.434792 
L 91.869091 -51.301615 
L 73.832727 -50.112 
z
" style="stroke: #fff2e7"/>
    </defs>
    <g clip-path="url(#p65993bbcb5)">
     <use xlink:href="#m1d39d26ae8" x="0" y="345.6" style="fill: #fff2e7; stroke: #fff2e7"/>
    </g>
   </g>
   <g id="matplotlib.axis_1">
    <g id="xtick_1">
     <g id="line2d_1">
      <defs>
       <path id="mf809211e00" d="M 0 0 
L 0 3.5 
" style="stroke: #000000; stroke-width: 0.8"/>
      </defs>
      <g>
       <use xlink:href="#mf809211e00" x="100.887273" y="307.584" style="stroke: #000000; stroke-width: 0.8"/>
      </g>
     </g>
     <g id="text_1">
      <!-- 2.5 -->
      <g transform="translate(92.93571 322.182437) scale(0.1 -0.1)">
       <defs>
        <path id="DejaVuSans-32" d="M 1228 531 
L 3431 531 
L 3431 0 
L 469 0 
L 469 531 
Q 828 903 1448 1529 
Q 2069 2156 2228 2338 
Q 2531 2678 2651 2914 
Q 2772 3150 2772 3378 
Q 2772 3750 2511 3984 
Q 2250 4219 1831 4219 
Q 1534 4219 1204 4116 
Q 875 4013 500 3803 
L 500 4441 
Q 881 4594 1212 4672 
Q 1544 4750 1819 4750 
Q 2544 4750 2975 4387 
Q 3406 4025 3406 3419 
Q 3406 3131 3298 2873 
Q 3191 2616 2906 2266 
Q 2828 2175 2409 1742 
Q 1991 1309 1228 531 
z
" transform="scale(0.015625)"/>
        <path id="DejaVuSans-2e" d="M 684 794 
L 1344 794 
L 1344 0 
L 684 0 
L 684 794 
z
" transform="scale(0.015625)"/>
        <path id="DejaVuSans-35" d="M 691 4666 
L 3169 4666 
L 3169 4134 
L 1269 4134 
L 1269 2991 
Q 1406 3038 1543 3061 
Q 1681 3084 1819 3084 
Q 2600 3084 3056 2656 
Q 3513 2228 3513 1497 
Q 3513 744 3044 326 
Q 2575 -91 1722 -91 
Q 1428 -91 1123 -41 
Q 819 9 494 109 
L 494 744 
Q 775 591 1075 516 
Q 1375 441 1709 441 
Q 2250 441 2565 725 
Q 2881 1009 2881 1497 
Q 2881 1984 2565 2268 
Q 2250 2553 1709 2553 
Q 1456 2553 1204 2497 
Q 953 2441 691 2322 
L 691 4666 
z
" transform="scale(0.015625)"/>
       </defs>
       <use xlink:href="#DejaVuSans-32"/>
       <use xlink:href="#DejaVuSans-2e" x="63.623047"/>
       <use xlink:href="#DejaVuSans-35" x="95.410156"/>
      </g>
     </g>
    </g>
    <g id="xtick_2">
     <g id="line2d_2">
      <g>
       <use xlink:href="#mf809211e00" x="145.978182" y="307.584" style="stroke: #000000; stroke-width: 0.8"/>
      </g>
     </g>
     <g id="text_2">
      <!-- 5.0 -->
      <g transform="translate(138.026619 322.182437) scale(0.1 -0.1)">
       <defs>
        <path id="DejaVuSans-30" d="M 2034 4250 
Q 1547 4250 1301 3770 
Q 1056 3291 1056 2328 
Q 1056 1369 1301 889 
Q 1547 409 2034 409 
Q 2525 409 2770 889 
Q 3016 1369 3016 2328 
Q 3016 3291 2770 3770 
Q 2525 4250 2034 4250 
z
M 2034 4750 
Q 2819 4750 3233 4129 
Q 3647 3509 3647 2328 
Q 3647 1150 3233 529 
Q 2819 -91 2034 -91 
Q 1250 -91 836 529 
Q 422 1150 422 2328 
Q 422 3509 836 4129 
Q 1250 4750 2034 4750 
z
" transform="scale(0.015625)"/>
       </defs>
       <use xlink:href="#DejaVuSans-35"/>
       <use xlink:href="#DejaVuSans-2e" x="63.623047"/>
       <use xlink:href="#DejaVuSans-30" x="95.410156"/>
      </g>
     </g>
    </g>
    <g id="xtick_3">
     <g id="line2d_3">
      <g>
       <use xlink:href="#mf809211e00" x="191.069091" y="307.584" style="stroke: #000000; stroke-width: 0.8"/>
      </g>
     </g>
     <g id="text_3">
      <!-- 7.5 -->
      <g transform="translate(183.117528 322.182437) scale(0.1 -0.1)">
       <defs>
        <path id="DejaVuSans-37" d="M 525 4666 
L 3525 4666 
L 3525 4397 
L 1831 0 
L 1172 0 
L 2766 4134 
L 525 4134 
L 525 4666 
z
" transform="scale(0.015625)"/>
       </defs>
       <use xlink:href="#DejaVuSans-37"/>
       <use xlink:href="#DejaVuSans-2e" x="63.623047"/>
       <use xlink:href="#DejaVuSans-35" x="95.410156"/>
      </g>
     </g>
    </g>
    <g id="xtick_4">
     <g id="line2d_4">
      <g>
       <use xlink:href="#mf809211e00" x="236.16" y="307.584" style="stroke: #000000; stroke-width: 0.8"/>
      </g>
     </g>
     <g id="text_4">
      <!-- 10.0 -->
      <g transform="translate(225.027188 322.182437) scale(0.1 -0.1)">
       <defs>
        <path id="DejaVuSans-31" d="M 794 531 
L 1825 531 
L 1825 4091 
L 703 3866 
L 703 4441 
L 1819 4666 
L 2450 4666 
L 2450 531 
L 3481 531 
L 3481 0 
L 794 0 
L 794 531 
z
" transform="scale(0.015625)"/>
       </defs>
       <use xlink:href="#DejaVuSans-31"/>
       <use xlink:href="#DejaVuSans-30" x="63.623047"/>
       <use xlink:href="#DejaVuSans-2e" x="127.246094"/>
       <use xlink:href="#DejaVuSans-30" x="159.033203"/>
      </g>
     </g>
    </g>
    <g id="xtick_5">
     <g id="line2d_5">
      <g>
       <use xlink:href="#mf809211e00" x="281.250909" y="307.584" style="stroke: #000000; stroke-width: 0.8"/>
      </g>
     </g>
     <g id="text_5">
      <!-- 12.5 -->
      <g transform="translate(270.118097 322.182437) scale(0.1 -0.1)">
       <use xlink:href="#DejaVuSans-31"/>
       <use xlink:href="#DejaVuSans-32" x="63.623047"/>
       <use xlink:href="#DejaVuSans-2e" x="127.246094"/>
       <use xlink:href="#DejaVuSans-35" x="159.033203"/>
      </g>
     </g>
    </g>
    <g id="xtick_6">
     <g id="line2d_6">
      <g>
       <use xlink:href="#mf809211e00" x="326.341818" y="307.584" style="stroke: #000000; stroke-width: 0.8"/>
      </g>
     </g>
     <g id="text_6">
      <!-- 15.0 -->
      <g transform="translate(315.209006 322.182437) scale(0.1 -0.1)">
       <use xlink:href="#DejaVuSans-31"/>
       <use xlink:href="#DejaVuSans-35" x="63.623047"/>
       <use xlink:href="#DejaVuSans-2e" x="127.246094"/>
       <use xlink:href="#DejaVuSans-30" x="159.033203"/>
      </g>
     </g>
    </g>
    <g id="xtick_7">
     <g id="line2d_7">
      <g>
       <use xlink:href="#mf809211e00" x="371.432727" y="307.584" style="stroke: #000000; stroke-width: 0.8"/>
      </g>
     </g>
     <g id="text_7">
      <!-- 17.5 -->
      <g transform="translate(360.299915 322.182437) scale(0.1 -0.1)">
       <use xlink:href="#DejaVuSans-31"/>
       <use xlink:href="#DejaVuSans-37" x="63.623047"/>
       <use xlink:href="#DejaVuSans-2e" x="127.246094"/>
       <use xlink:href="#DejaVuSans-35" x="159.033203"/>
      </g>
     </g>
    </g>
    <g id="text_8">
     <!-- Task Number -->
     <g transform="translate(203.692031 335.860562) scale(0.1 -0.1)">
      <defs>
       <path id="DejaVuSans-54" d="M -19 4666 
L 3928 4666 
L 3928 4134 
L 2272 4134 
L 2272 0 
L 1638 0 
L 1638 4134 
L -19 4134 
L -19 4666 
z
" transform="scale(0.015625)"/>
       <path id="DejaVuSans-61" d="M 2194 1759 
Q 1497 1759 1228 1600 
Q 959 1441 959 1056 
Q 959 750 1161 570 
Q 1363 391 1709 391 
Q 2188 391 2477 730 
Q 2766 1069 2766 1631 
L 2766 1759 
L 2194 1759 
z
M 3341 1997 
L 3341 0 
L 2766 0 
L 2766 531 
Q 2569 213 2275 61 
Q 1981 -91 1556 -91 
Q 1019 -91 701 211 
Q 384 513 384 1019 
Q 384 1609 779 1909 
Q 1175 2209 1959 2209 
L 2766 2209 
L 2766 2266 
Q 2766 2663 2505 2880 
Q 2244 3097 1772 3097 
Q 1472 3097 1187 3025 
Q 903 2953 641 2809 
L 641 3341 
Q 956 3463 1253 3523 
Q 1550 3584 1831 3584 
Q 2591 3584 2966 3190 
Q 3341 2797 3341 1997 
z
" transform="scale(0.015625)"/>
       <path id="DejaVuSans-73" d="M 2834 3397 
L 2834 2853 
Q 2591 2978 2328 3040 
Q 2066 3103 1784 3103 
Q 1356 3103 1142 2972 
Q 928 2841 928 2578 
Q 928 2378 1081 2264 
Q 1234 2150 1697 2047 
L 1894 2003 
Q 2506 1872 2764 1633 
Q 3022 1394 3022 966 
Q 3022 478 2636 193 
Q 2250 -91 1575 -91 
Q 1294 -91 989 -36 
Q 684 19 347 128 
L 347 722 
Q 666 556 975 473 
Q 1284 391 1588 391 
Q 1994 391 2212 530 
Q 2431 669 2431 922 
Q 2431 1156 2273 1281 
Q 2116 1406 1581 1522 
L 1381 1569 
Q 847 1681 609 1914 
Q 372 2147 372 2553 
Q 372 3047 722 3315 
Q 1072 3584 1716 3584 
Q 2034 3584 2315 3537 
Q 2597 3491 2834 3397 
z
" transform="scale(0.015625)"/>
       <path id="DejaVuSans-6b" d="M 581 4863 
L 1159 4863 
L 1159 1991 
L 2875 3500 
L 3609 3500 
L 1753 1863 
L 3688 0 
L 2938 0 
L 1159 1709 
L 1159 0 
L 581 0 
L 581 4863 
z
" transform="scale(0.015625)"/>
       <path id="DejaVuSans-20" transform="scale(0.015625)"/>
       <path id="DejaVuSans-4e" d="M 628 4666 
L 1478 4666 
L 3547 763 
L 3547 4666 
L 4159 4666 
L 4159 0 
L 3309 0 
L 1241 3903 
L 1241 0 
L 628 0 
L 628 4666 
z
" transform="scale(0.015625)"/>
       <path id="DejaVuSans-75" d="M 544 1381 
L 544 3500 
L 1119 3500 
L 1119 1403 
Q 1119 906 1312 657 
Q 1506 409 1894 409 
Q 2359 409 2629 706 
Q 2900 1003 2900 1516 
L 2900 3500 
L 3475 3500 
L 3475 0 
L 2900 0 
L 2900 538 
Q 2691 219 2414 64 
Q 2138 -91 1772 -91 
Q 1169 -91 856 284 
Q 544 659 544 1381 
z
M 1991 3584 
L 1991 3584 
z
" transform="scale(0.015625)"/>
       <path id="DejaVuSans-6d" d="M 3328 2828 
Q 3544 3216 3844 3400 
Q 4144 3584 4550 3584 
Q 5097 3584 5394 3201 
Q 5691 2819 5691 2113 
L 5691 0 
L 5113 0 
L 5113 2094 
Q 5113 2597 4934 2840 
Q 4756 3084 4391 3084 
Q 3944 3084 3684 2787 
Q 3425 2491 3425 1978 
L 3425 0 
L 2847 0 
L 2847 2094 
Q 2847 2600 2669 2842 
Q 2491 3084 2119 3084 
Q 1678 3084 1418 2786 
Q 1159 2488 1159 1978 
L 1159 0 
L 581 0 
L 581 3500 
L 1159 3500 
L 1159 2956 
Q 1356 3278 1631 3431 
Q 1906 3584 2284 3584 
Q 2666 3584 2933 3390 
Q 3200 3197 3328 2828 
z
" transform="scale(0.015625)"/>
       <path id="DejaVuSans-62" d="M 3116 1747 
Q 3116 2381 2855 2742 
Q 2594 3103 2138 3103 
Q 1681 3103 1420 2742 
Q 1159 2381 1159 1747 
Q 1159 1113 1420 752 
Q 1681 391 2138 391 
Q 2594 391 2855 752 
Q 3116 1113 3116 1747 
z
M 1159 2969 
Q 1341 3281 1617 3432 
Q 1894 3584 2278 3584 
Q 2916 3584 3314 3078 
Q 3713 2572 3713 1747 
Q 3713 922 3314 415 
Q 2916 -91 2278 -91 
Q 1894 -91 1617 61 
Q 1341 213 1159 525 
L 1159 0 
L 581 0 
L 581 4863 
L 1159 4863 
L 1159 2969 
z
" transform="scale(0.015625)"/>
       <path id="DejaVuSans-65" d="M 3597 1894 
L 3597 1613 
L 953 1613 
Q 991 1019 1311 708 
Q 1631 397 2203 397 
Q 2534 397 2845 478 
Q 3156 559 3463 722 
L 3463 178 
Q 3153 47 2828 -22 
Q 2503 -91 2169 -91 
Q 1331 -91 842 396 
Q 353 884 353 1716 
Q 353 2575 817 3079 
Q 1281 3584 2069 3584 
Q 2775 3584 3186 3129 
Q 3597 2675 3597 1894 
z
M 3022 2063 
Q 3016 2534 2758 2815 
Q 2500 3097 2075 3097 
Q 1594 3097 1305 2825 
Q 1016 2553 972 2059 
L 3022 2063 
z
" transform="scale(0.015625)"/>
       <path id="DejaVuSans-72" d="M 2631 2963 
Q 2534 3019 2420 3045 
Q 2306 3072 2169 3072 
Q 1681 3072 1420 2755 
Q 1159 2438 1159 1844 
L 1159 0 
L 581 0 
L 581 3500 
L 1159 3500 
L 1159 2956 
Q 1341 3275 1631 3429 
Q 1922 3584 2338 3584 
Q 2397 3584 2469 3576 
Q 2541 3569 2628 3553 
L 2631 2963 
z
" transform="scale(0.015625)"/>
      </defs>
      <use xlink:href="#DejaVuSans-54"/>
      <use xlink:href="#DejaVuSans-61" x="44.583984"/>
      <use xlink:href="#DejaVuSans-73" x="105.863281"/>
      <use xlink:href="#DejaVuSans-6b" x="157.962891"/>
      <use xlink:href="#DejaVuSans-20" x="215.873047"/>
      <use xlink:href="#DejaVuSans-4e" x="247.660156"/>
      <use xlink:href="#DejaVuSans-75" x="322.464844"/>
      <use xlink:href="#DejaVuSans-6d" x="385.84375"/>
      <use xlink:href="#DejaVuSans-62" x="483.255859"/>
      <use xlink:href="#DejaVuSans-65" x="546.732422"/>
      <use xlink:href="#DejaVuSans-72" x="608.255859"/>
     </g>
    </g>
   </g>
   <g id="matplotlib.axis_2">
    <g id="ytick_1">
     <g id="line2d_8">
      <path d="M 57.6 284.110757 
L 414.72 284.110757 
" clip-path="url(#p65993bbcb5)" style="fill: none; stroke: #b0b0b0; stroke-width: 0.8; stroke-linecap: square"/>
     </g>
     <g id="line2d_9">
      <defs>
       <path id="me6a8b07691" d="M 0 0 
L -3.5 0 
" style="stroke: #000000; stroke-width: 0.8"/>
      </defs>
      <g>
       <use xlink:href="#me6a8b07691" x="57.6" y="284.110757" style="stroke: #000000; stroke-width: 0.8"/>
      </g>
     </g>
     <g id="text_9">
      <!-- 0.05 -->
      <g transform="translate(28.334375 287.909976) scale(0.1 -0.1)">
       <use xlink:href="#DejaVuSans-30"/>
       <use xlink:href="#DejaVuSans-2e" x="63.623047"/>
       <use xlink:href="#DejaVuSans-30" x="95.410156"/>
       <use xlink:href="#DejaVuSans-35" x="159.033203"/>
      </g>
     </g>
    </g>
    <g id="ytick_2">
     <g id="line2d_10">
      <path d="M 57.6 248.837383 
L 414.72 248.837383 
" clip-path="url(#p65993bbcb5)" style="fill: none; stroke: #b0b0b0; stroke-width: 0.8; stroke-linecap: square"/>
     </g>
     <g id="line2d_11">
      <g>
       <use xlink:href="#me6a8b07691" x="57.6" y="248.837383" style="stroke: #000000; stroke-width: 0.8"/>
      </g>
     </g>
     <g id="text_10">
      <!-- 0.10 -->
      <g transform="translate(28.334375 252.636602) scale(0.1 -0.1)">
       <use xlink:href="#DejaVuSans-30"/>
       <use xlink:href="#DejaVuSans-2e" x="63.623047"/>
       <use xlink:href="#DejaVuSans-31" x="95.410156"/>
       <use xlink:href="#DejaVuSans-30" x="159.033203"/>
      </g>
     </g>
    </g>
    <g id="ytick_3">
     <g id="line2d_12">
      <path d="M 57.6 213.564009 
L 414.72 213.564009 
" clip-path="url(#p65993bbcb5)" style="fill: none; stroke: #b0b0b0; stroke-width: 0.8; stroke-linecap: square"/>
     </g>
     <g id="line2d_13">
      <g>
       <use xlink:href="#me6a8b07691" x="57.6" y="213.564009" style="stroke: #000000; stroke-width: 0.8"/>
      </g>
     </g>
     <g id="text_11">
      <!-- 0.15 -->
      <g transform="translate(28.334375 217.363228) scale(0.1 -0.1)">
       <use xlink:href="#DejaVuSans-30"/>
       <use xlink:href="#DejaVuSans-2e" x="63.623047"/>
       <use xlink:href="#DejaVuSans-31" x="95.410156"/>
       <use xlink:href="#DejaVuSans-35" x="159.033203"/>
      </g>
     </g>
    </g>
    <g id="ytick_4">
     <g id="line2d_14">
      <path d="M 57.6 178.290635 
L 414.72 178.290635 
" clip-path="url(#p65993bbcb5)" style="fill: none; stroke: #b0b0b0; stroke-width: 0.8; stroke-linecap: square"/>
     </g>
     <g id="line2d_15">
      <g>
       <use xlink:href="#me6a8b07691" x="57.6" y="178.290635" style="stroke: #000000; stroke-width: 0.8"/>
      </g>
     </g>
     <g id="text_12">
      <!-- 0.20 -->
      <g transform="translate(28.334375 182.089854) scale(0.1 -0.1)">
       <use xlink:href="#DejaVuSans-30"/>
       <use xlink:href="#DejaVuSans-2e" x="63.623047"/>
       <use xlink:href="#DejaVuSans-32" x="95.410156"/>
       <use xlink:href="#DejaVuSans-30" x="159.033203"/>
      </g>
     </g>
    </g>
    <g id="ytick_5">
     <g id="line2d_16">
      <path d="M 57.6 143.017261 
L 414.72 143.017261 
" clip-path="url(#p65993bbcb5)" style="fill: none; stroke: #b0b0b0; stroke-width: 0.8; stroke-linecap: square"/>
     </g>
     <g id="line2d_17">
      <g>
       <use xlink:href="#me6a8b07691" x="57.6" y="143.017261" style="stroke: #000000; stroke-width: 0.8"/>
      </g>
     </g>
     <g id="text_13">
      <!-- 0.25 -->
      <g transform="translate(28.334375 146.81648) scale(0.1 -0.1)">
       <use xlink:href="#DejaVuSans-30"/>
       <use xlink:href="#DejaVuSans-2e" x="63.623047"/>
       <use xlink:href="#DejaVuSans-32" x="95.410156"/>
       <use xlink:href="#DejaVuSans-35" x="159.033203"/>
      </g>
     </g>
    </g>
    <g id="ytick_6">
     <g id="line2d_18">
      <path d="M 57.6 107.743887 
L 414.72 107.743887 
" clip-path="url(#p65993bbcb5)" style="fill: none; stroke: #b0b0b0; stroke-width: 0.8; stroke-linecap: square"/>
     </g>
     <g id="line2d_19">
      <g>
       <use xlink:href="#me6a8b07691" x="57.6" y="107.743887" style="stroke: #000000; stroke-width: 0.8"/>
      </g>
     </g>
     <g id="text_14">
      <!-- 0.30 -->
      <g transform="translate(28.334375 111.543106) scale(0.1 -0.1)">
       <defs>
        <path id="DejaVuSans-33" d="M 2597 2516 
Q 3050 2419 3304 2112 
Q 3559 1806 3559 1356 
Q 3559 666 3084 287 
Q 2609 -91 1734 -91 
Q 1441 -91 1130 -33 
Q 819 25 488 141 
L 488 750 
Q 750 597 1062 519 
Q 1375 441 1716 441 
Q 2309 441 2620 675 
Q 2931 909 2931 1356 
Q 2931 1769 2642 2001 
Q 2353 2234 1838 2234 
L 1294 2234 
L 1294 2753 
L 1863 2753 
Q 2328 2753 2575 2939 
Q 2822 3125 2822 3475 
Q 2822 3834 2567 4026 
Q 2313 4219 1838 4219 
Q 1578 4219 1281 4162 
Q 984 4106 628 3988 
L 628 4550 
Q 988 4650 1302 4700 
Q 1616 4750 1894 4750 
Q 2613 4750 3031 4423 
Q 3450 4097 3450 3541 
Q 3450 3153 3228 2886 
Q 3006 2619 2597 2516 
z
" transform="scale(0.015625)"/>
       </defs>
       <use xlink:href="#DejaVuSans-30"/>
       <use xlink:href="#DejaVuSans-2e" x="63.623047"/>
       <use xlink:href="#DejaVuSans-33" x="95.410156"/>
       <use xlink:href="#DejaVuSans-30" x="159.033203"/>
      </g>
     </g>
    </g>
    <g id="ytick_7">
     <g id="line2d_20">
      <path d="M 57.6 72.470513 
L 414.72 72.470513 
" clip-path="url(#p65993bbcb5)" style="fill: none; stroke: #b0b0b0; stroke-width: 0.8; stroke-linecap: square"/>
     </g>
     <g id="line2d_21">
      <g>
       <use xlink:href="#me6a8b07691" x="57.6" y="72.470513" style="stroke: #000000; stroke-width: 0.8"/>
      </g>
     </g>
     <g id="text_15">
      <!-- 0.35 -->
      <g transform="translate(28.334375 76.269732) scale(0.1 -0.1)">
       <use xlink:href="#DejaVuSans-30"/>
       <use xlink:href="#DejaVuSans-2e" x="63.623047"/>
       <use xlink:href="#DejaVuSans-33" x="95.410156"/>
       <use xlink:href="#DejaVuSans-35" x="159.033203"/>
      </g>
     </g>
    </g>
    <g id="text_16">
     <!-- next_task_effective_rank_analysis -->
     <g transform="translate(21.976562 259.364719) rotate(-90) scale(0.1 -0.1)">
      <defs>
       <path id="DejaVuSans-6e" d="M 3513 2113 
L 3513 0 
L 2938 0 
L 2938 2094 
Q 2938 2591 2744 2837 
Q 2550 3084 2163 3084 
Q 1697 3084 1428 2787 
Q 1159 2491 1159 1978 
L 1159 0 
L 581 0 
L 581 3500 
L 1159 3500 
L 1159 2956 
Q 1366 3272 1645 3428 
Q 1925 3584 2291 3584 
Q 2894 3584 3203 3211 
Q 3513 2838 3513 2113 
z
" transform="scale(0.015625)"/>
       <path id="DejaVuSans-78" d="M 3513 3500 
L 2247 1797 
L 3578 0 
L 2900 0 
L 1881 1375 
L 863 0 
L 184 0 
L 1544 1831 
L 300 3500 
L 978 3500 
L 1906 2253 
L 2834 3500 
L 3513 3500 
z
" transform="scale(0.015625)"/>
       <path id="DejaVuSans-74" d="M 1172 4494 
L 1172 3500 
L 2356 3500 
L 2356 3053 
L 1172 3053 
L 1172 1153 
Q 1172 725 1289 603 
Q 1406 481 1766 481 
L 2356 481 
L 2356 0 
L 1766 0 
Q 1100 0 847 248 
Q 594 497 594 1153 
L 594 3053 
L 172 3053 
L 172 3500 
L 594 3500 
L 594 4494 
L 1172 4494 
z
" transform="scale(0.015625)"/>
       <path id="DejaVuSans-5f" d="M 3263 -1063 
L 3263 -1509 
L -63 -1509 
L -63 -1063 
L 3263 -1063 
z
" transform="scale(0.015625)"/>
       <path id="DejaVuSans-66" d="M 2375 4863 
L 2375 4384 
L 1825 4384 
Q 1516 4384 1395 4259 
Q 1275 4134 1275 3809 
L 1275 3500 
L 2222 3500 
L 2222 3053 
L 1275 3053 
L 1275 0 
L 697 0 
L 697 3053 
L 147 3053 
L 147 3500 
L 697 3500 
L 697 3744 
Q 697 4328 969 4595 
Q 1241 4863 1831 4863 
L 2375 4863 
z
" transform="scale(0.015625)"/>
       <path id="DejaVuSans-63" d="M 3122 3366 
L 3122 2828 
Q 2878 2963 2633 3030 
Q 2388 3097 2138 3097 
Q 1578 3097 1268 2742 
Q 959 2388 959 1747 
Q 959 1106 1268 751 
Q 1578 397 2138 397 
Q 2388 397 2633 464 
Q 2878 531 3122 666 
L 3122 134 
Q 2881 22 2623 -34 
Q 2366 -91 2075 -91 
Q 1284 -91 818 406 
Q 353 903 353 1747 
Q 353 2603 823 3093 
Q 1294 3584 2113 3584 
Q 2378 3584 2631 3529 
Q 2884 3475 3122 3366 
z
" transform="scale(0.015625)"/>
       <path id="DejaVuSans-69" d="M 603 3500 
L 1178 3500 
L 1178 0 
L 603 0 
L 603 3500 
z
M 603 4863 
L 1178 4863 
L 1178 4134 
L 603 4134 
L 603 4863 
z
" transform="scale(0.015625)"/>
       <path id="DejaVuSans-76" d="M 191 3500 
L 800 3500 
L 1894 563 
L 2988 3500 
L 3597 3500 
L 2284 0 
L 1503 0 
L 191 3500 
z
" transform="scale(0.015625)"/>
       <path id="DejaVuSans-6c" d="M 603 4863 
L 1178 4863 
L 1178 0 
L 603 0 
L 603 4863 
z
" transform="scale(0.015625)"/>
       <path id="DejaVuSans-79" d="M 2059 -325 
Q 1816 -950 1584 -1140 
Q 1353 -1331 966 -1331 
L 506 -1331 
L 506 -850 
L 844 -850 
Q 1081 -850 1212 -737 
Q 1344 -625 1503 -206 
L 1606 56 
L 191 3500 
L 800 3500 
L 1894 763 
L 2988 3500 
L 3597 3500 
L 2059 -325 
z
" transform="scale(0.015625)"/>
      </defs>
      <use xlink:href="#DejaVuSans-6e"/>
      <use xlink:href="#DejaVuSans-65" x="63.378906"/>
      <use xlink:href="#DejaVuSans-78" x="123.152344"/>
      <use xlink:href="#DejaVuSans-74" x="182.332031"/>
      <use xlink:href="#DejaVuSans-5f" x="221.541016"/>
      <use xlink:href="#DejaVuSans-74" x="271.541016"/>
      <use xlink:href="#DejaVuSans-61" x="310.75"/>
      <use xlink:href="#DejaVuSans-73" x="372.029297"/>
      <use xlink:href="#DejaVuSans-6b" x="424.128906"/>
      <use xlink:href="#DejaVuSans-5f" x="482.039062"/>
      <use xlink:href="#DejaVuSans-65" x="532.039062"/>
      <use xlink:href="#DejaVuSans-66" x="593.5625"/>
      <use xlink:href="#DejaVuSans-66" x="628.767578"/>
      <use xlink:href="#DejaVuSans-65" x="663.972656"/>
      <use xlink:href="#DejaVuSans-63" x="725.496094"/>
      <use xlink:href="#DejaVuSans-74" x="780.476562"/>
      <use xlink:href="#DejaVuSans-69" x="819.685547"/>
      <use xlink:href="#DejaVuSans-76" x="847.46875"/>
      <use xlink:href="#DejaVuSans-65" x="906.648438"/>
      <use xlink:href="#DejaVuSans-5f" x="968.171875"/>
      <use xlink:href="#DejaVuSans-72" x="1018.171875"/>
      <use xlink:href="#DejaVuSans-61" x="1059.285156"/>
      <use xlink:href="#DejaVuSans-6e" x="1120.564453"/>
      <use xlink:href="#DejaVuSans-6b" x="1183.943359"/>
      <use xlink:href="#DejaVuSans-5f" x="1241.853516"/>
      <use xlink:href="#DejaVuSans-61" x="1291.853516"/>
      <use xlink:href="#DejaVuSans-6e" x="1353.132812"/>
      <use xlink:href="#DejaVuSans-61" x="1416.511719"/>
      <use xlink:href="#DejaVuSans-6c" x="1477.791016"/>
      <use xlink:href="#DejaVuSans-79" x="1505.574219"/>
      <use xlink:href="#DejaVuSans-73" x="1564.753906"/>
      <use xlink:href="#DejaVuSans-69" x="1616.853516"/>
      <use xlink:href="#DejaVuSans-73" x="1644.636719"/>
     </g>
    </g>
   </g>
   <g id="line2d_22">
    <path d="M 73.832727 136.949171 
L 91.869091 147.929841 
L 109.905455 154.827214 
L 127.941818 146.786304 
L 145.978182 148.972986 
L 164.014545 133.351237 
L 182.050909 103.821388 
L 200.087273 104.093446 
L 218.123636 93.757179 
L 236.16 90.371445 
L 254.196364 67.194276 
L 272.232727 67.157693 
L 290.269091 64.391637 
L 308.305455 57.618909 
L 326.341818 61.489805 
L 344.378182 59.712578 
L 362.414545 55.049559 
L 380.450909 66.446032 
L 398.487273 53.568 
" clip-path="url(#p65993bbcb5)" style="fill: none; stroke: #d62728; stroke-linecap: square"/>
   </g>
   <g id="line2d_23">
    <path d="M 73.832727 293.94091 
L 91.869091 294.103303 
L 109.905455 293.455397 
L 127.941818 291.472812 
L 145.978182 292.119974 
L 164.014545 290.152193 
L 182.050909 288.423931 
L 200.087273 286.731322 
L 218.123636 286.642556 
L 236.16 286.379373 
L 254.196364 285.412606 
L 272.232727 286.213734 
L 290.269091 285.360402 
L 308.305455 285.136916 
L 326.341818 285.414267 
L 344.378182 285.541287 
L 362.414545 285.09663 
L 380.450909 285.28048 
L 398.487273 284.560916 
" clip-path="url(#p65993bbcb5)" style="fill: none; stroke: #1f77b4; stroke-linecap: square"/>
   </g>
   <g id="line2d_24">
    <path d="M 73.832727 294.426943 
L 91.869091 293.320251 
L 109.905455 290.271862 
L 127.941818 288.392192 
L 145.978182 291.147165 
L 164.014545 289.780431 
L 182.050909 288.425474 
L 200.087273 286.436502 
L 218.123636 286.283375 
L 236.16 287.347258 
L 254.196364 285.740316 
L 272.232727 285.150022 
L 290.269091 284.751722 
L 308.305455 284.931083 
L 326.341818 285.368596 
L 344.378182 284.871084 
L 362.414545 285.611877 
L 380.450909 286.091791 
L 398.487273 284.858178 
" clip-path="url(#p65993bbcb5)" style="fill: none; stroke: #7f7f7f; stroke-linecap: square"/>
   </g>
   <g id="line2d_25">
    <path d="M 73.832727 293.439829 
L 91.869091 293.776534 
L 109.905455 291.740512 
L 127.941818 291.856834 
L 145.978182 293.461124 
L 164.014545 289.304367 
L 182.050909 288.844712 
L 200.087273 287.283648 
L 218.123636 287.501633 
L 236.16 286.593051 
L 254.196364 285.772773 
L 272.232727 286.356767 
L 290.269091 285.4292 
L 308.305455 285.095353 
L 326.341818 285.73358 
L 344.378182 284.995833 
L 362.414545 284.831852 
L 380.450909 285.370436 
L 398.487273 284.87197 
" clip-path="url(#p65993bbcb5)" style="fill: none; stroke: #2ca02c; stroke-linecap: square"/>
   </g>
   <g id="line2d_26">
    <path d="M 73.832727 295.488 
L 91.869091 294.298385 
L 109.905455 293.165208 
L 127.941818 292.02585 
L 145.978182 292.968602 
L 164.014545 289.457331 
L 182.050909 289.244575 
L 200.087273 287.625187 
L 218.123636 287.77177 
L 236.16 287.342877 
L 254.196364 286.085326 
L 272.232727 285.935421 
L 290.269091 284.815929 
L 308.305455 284.688199 
L 326.341818 284.333273 
L 344.378182 285.183167 
L 362.414545 285.126128 
L 380.450909 285.974064 
L 398.487273 284.479278 
" clip-path="url(#p65993bbcb5)" style="fill: none; stroke: #ff7f0e; stroke-linecap: square"/>
   </g>
   <g id="patch_3">
    <path d="M 57.6 307.584 
L 57.6 41.472 
" style="fill: none; stroke: #000000; stroke-width: 0.8; stroke-linejoin: miter; stroke-linecap: square"/>
   </g>
   <g id="patch_4">
    <path d="M 414.72 307.584 
L 414.72 41.472 
" style="fill: none; stroke: #000000; stroke-width: 0.8; stroke-linejoin: miter; stroke-linecap: square"/>
   </g>
   <g id="patch_5">
    <path d="M 57.6 307.584 
L 414.72 307.584 
" style="fill: none; stroke: #000000; stroke-width: 0.8; stroke-linejoin: miter; stroke-linecap: square"/>
   </g>
   <g id="patch_6">
    <path d="M 57.6 41.472 
L 414.72 41.472 
" style="fill: none; stroke: #000000; stroke-width: 0.8; stroke-linejoin: miter; stroke-linecap: square"/>
   </g>
   <g id="legend_1">
    <g id="patch_7">
     <path d="M 234.929375 213.418625 
L 407.72 213.418625 
Q 409.72 213.418625 409.72 211.418625 
L 409.72 137.637375 
Q 409.72 135.637375 407.72 135.637375 
L 234.929375 135.637375 
Q 232.929375 135.637375 232.929375 137.637375 
L 232.929375 211.418625 
Q 232.929375 213.418625 234.929375 213.418625 
z
" style="fill: #ffffff; opacity: 0.8; stroke: #cccccc; stroke-linejoin: miter"/>
    </g>
    <g id="line2d_27">
     <path d="M 236.929375 143.735813 
L 246.929375 143.735813 
L 256.929375 143.735813 
" style="fill: none; stroke: #d62728; stroke-linecap: square"/>
    </g>
    <g id="text_17">
     <!-- base_deep_learning_system -->
     <g transform="translate(264.929375 147.235813) scale(0.1 -0.1)">
      <defs>
       <path id="DejaVuSans-64" d="M 2906 2969 
L 2906 4863 
L 3481 4863 
L 3481 0 
L 2906 0 
L 2906 525 
Q 2725 213 2448 61 
Q 2172 -91 1784 -91 
Q 1150 -91 751 415 
Q 353 922 353 1747 
Q 353 2572 751 3078 
Q 1150 3584 1784 3584 
Q 2172 3584 2448 3432 
Q 2725 3281 2906 2969 
z
M 947 1747 
Q 947 1113 1208 752 
Q 1469 391 1925 391 
Q 2381 391 2643 752 
Q 2906 1113 2906 1747 
Q 2906 2381 2643 2742 
Q 2381 3103 1925 3103 
Q 1469 3103 1208 2742 
Q 947 2381 947 1747 
z
" transform="scale(0.015625)"/>
       <path id="DejaVuSans-70" d="M 1159 525 
L 1159 -1331 
L 581 -1331 
L 581 3500 
L 1159 3500 
L 1159 2969 
Q 1341 3281 1617 3432 
Q 1894 3584 2278 3584 
Q 2916 3584 3314 3078 
Q 3713 2572 3713 1747 
Q 3713 922 3314 415 
Q 2916 -91 2278 -91 
Q 1894 -91 1617 61 
Q 1341 213 1159 525 
z
M 3116 1747 
Q 3116 2381 2855 2742 
Q 2594 3103 2138 3103 
Q 1681 3103 1420 2742 
Q 1159 2381 1159 1747 
Q 1159 1113 1420 752 
Q 1681 391 2138 391 
Q 2594 391 2855 752 
Q 3116 1113 3116 1747 
z
" transform="scale(0.015625)"/>
       <path id="DejaVuSans-67" d="M 2906 1791 
Q 2906 2416 2648 2759 
Q 2391 3103 1925 3103 
Q 1463 3103 1205 2759 
Q 947 2416 947 1791 
Q 947 1169 1205 825 
Q 1463 481 1925 481 
Q 2391 481 2648 825 
Q 2906 1169 2906 1791 
z
M 3481 434 
Q 3481 -459 3084 -895 
Q 2688 -1331 1869 -1331 
Q 1566 -1331 1297 -1286 
Q 1028 -1241 775 -1147 
L 775 -588 
Q 1028 -725 1275 -790 
Q 1522 -856 1778 -856 
Q 2344 -856 2625 -561 
Q 2906 -266 2906 331 
L 2906 616 
Q 2728 306 2450 153 
Q 2172 0 1784 0 
Q 1141 0 747 490 
Q 353 981 353 1791 
Q 353 2603 747 3093 
Q 1141 3584 1784 3584 
Q 2172 3584 2450 3431 
Q 2728 3278 2906 2969 
L 2906 3500 
L 3481 3500 
L 3481 434 
z
" transform="scale(0.015625)"/>
      </defs>
      <use xlink:href="#DejaVuSans-62"/>
      <use xlink:href="#DejaVuSans-61" x="63.476562"/>
      <use xlink:href="#DejaVuSans-73" x="124.755859"/>
      <use xlink:href="#DejaVuSans-65" x="176.855469"/>
      <use xlink:href="#DejaVuSans-5f" x="238.378906"/>
      <use xlink:href="#DejaVuSans-64" x="288.378906"/>
      <use xlink:href="#DejaVuSans-65" x="351.855469"/>
      <use xlink:href="#DejaVuSans-65" x="413.378906"/>
      <use xlink:href="#DejaVuSans-70" x="474.902344"/>
      <use xlink:href="#DejaVuSans-5f" x="538.378906"/>
      <use xlink:href="#DejaVuSans-6c" x="588.378906"/>
      <use xlink:href="#DejaVuSans-65" x="616.162109"/>
      <use xlink:href="#DejaVuSans-61" x="677.685547"/>
      <use xlink:href="#DejaVuSans-72" x="738.964844"/>
      <use xlink:href="#DejaVuSans-6e" x="778.328125"/>
      <use xlink:href="#DejaVuSans-69" x="841.707031"/>
      <use xlink:href="#DejaVuSans-6e" x="869.490234"/>
      <use xlink:href="#DejaVuSans-67" x="932.869141"/>
      <use xlink:href="#DejaVuSans-5f" x="996.345703"/>
      <use xlink:href="#DejaVuSans-73" x="1046.345703"/>
      <use xlink:href="#DejaVuSans-79" x="1098.445312"/>
      <use xlink:href="#DejaVuSans-73" x="1157.625"/>
      <use xlink:href="#DejaVuSans-74" x="1209.724609"/>
      <use xlink:href="#DejaVuSans-65" x="1248.933594"/>
      <use xlink:href="#DejaVuSans-6d" x="1310.457031"/>
     </g>
    </g>
    <g id="line2d_28">
     <path d="M 236.929375 158.692063 
L 246.929375 158.692063 
L 256.929375 158.692063 
" style="fill: none; stroke: #1f77b4; stroke-linecap: square"/>
    </g>
    <g id="text_18">
     <!-- continual_backpropagation -->
     <g transform="translate(264.929375 162.192063) scale(0.1 -0.1)">
      <defs>
       <path id="DejaVuSans-6f" d="M 1959 3097 
Q 1497 3097 1228 2736 
Q 959 2375 959 1747 
Q 959 1119 1226 758 
Q 1494 397 1959 397 
Q 2419 397 2687 759 
Q 2956 1122 2956 1747 
Q 2956 2369 2687 2733 
Q 2419 3097 1959 3097 
z
M 1959 3584 
Q 2709 3584 3137 3096 
Q 3566 2609 3566 1747 
Q 3566 888 3137 398 
Q 2709 -91 1959 -91 
Q 1206 -91 779 398 
Q 353 888 353 1747 
Q 353 2609 779 3096 
Q 1206 3584 1959 3584 
z
" transform="scale(0.015625)"/>
      </defs>
      <use xlink:href="#DejaVuSans-63"/>
      <use xlink:href="#DejaVuSans-6f" x="54.980469"/>
      <use xlink:href="#DejaVuSans-6e" x="116.162109"/>
      <use xlink:href="#DejaVuSans-74" x="179.541016"/>
      <use xlink:href="#DejaVuSans-69" x="218.75"/>
      <use xlink:href="#DejaVuSans-6e" x="246.533203"/>
      <use xlink:href="#DejaVuSans-75" x="309.912109"/>
      <use xlink:href="#DejaVuSans-61" x="373.291016"/>
      <use xlink:href="#DejaVuSans-6c" x="434.570312"/>
      <use xlink:href="#DejaVuSans-5f" x="462.353516"/>
      <use xlink:href="#DejaVuSans-62" x="512.353516"/>
      <use xlink:href="#DejaVuSans-61" x="575.830078"/>
      <use xlink:href="#DejaVuSans-63" x="637.109375"/>
      <use xlink:href="#DejaVuSans-6b" x="692.089844"/>
      <use xlink:href="#DejaVuSans-70" x="750"/>
      <use xlink:href="#DejaVuSans-72" x="813.476562"/>
      <use xlink:href="#DejaVuSans-6f" x="852.339844"/>
      <use xlink:href="#DejaVuSans-70" x="913.521484"/>
      <use xlink:href="#DejaVuSans-61" x="976.998047"/>
      <use xlink:href="#DejaVuSans-67" x="1038.277344"/>
      <use xlink:href="#DejaVuSans-61" x="1101.753906"/>
      <use xlink:href="#DejaVuSans-74" x="1163.033203"/>
      <use xlink:href="#DejaVuSans-69" x="1202.242188"/>
      <use xlink:href="#DejaVuSans-6f" x="1230.025391"/>
      <use xlink:href="#DejaVuSans-6e" x="1291.207031"/>
     </g>
    </g>
    <g id="line2d_29">
     <path d="M 236.929375 173.648313 
L 246.929375 173.648313 
L 256.929375 173.648313 
" style="fill: none; stroke: #7f7f7f; stroke-linecap: square"/>
    </g>
    <g id="text_19">
     <!-- retrained_network -->
     <g transform="translate(264.929375 177.148313) scale(0.1 -0.1)">
      <defs>
       <path id="DejaVuSans-77" d="M 269 3500 
L 844 3500 
L 1563 769 
L 2278 3500 
L 2956 3500 
L 3675 769 
L 4391 3500 
L 4966 3500 
L 4050 0 
L 3372 0 
L 2619 2869 
L 1863 0 
L 1184 0 
L 269 3500 
z
" transform="scale(0.015625)"/>
      </defs>
      <use xlink:href="#DejaVuSans-72"/>
      <use xlink:href="#DejaVuSans-65" x="38.863281"/>
      <use xlink:href="#DejaVuSans-74" x="100.386719"/>
      <use xlink:href="#DejaVuSans-72" x="139.595703"/>
      <use xlink:href="#DejaVuSans-61" x="180.708984"/>
      <use xlink:href="#DejaVuSans-69" x="241.988281"/>
      <use xlink:href="#DejaVuSans-6e" x="269.771484"/>
      <use xlink:href="#DejaVuSans-65" x="333.150391"/>
      <use xlink:href="#DejaVuSans-64" x="394.673828"/>
      <use xlink:href="#DejaVuSans-5f" x="458.150391"/>
      <use xlink:href="#DejaVuSans-6e" x="508.150391"/>
      <use xlink:href="#DejaVuSans-65" x="571.529297"/>
      <use xlink:href="#DejaVuSans-74" x="633.052734"/>
      <use xlink:href="#DejaVuSans-77" x="672.261719"/>
      <use xlink:href="#DejaVuSans-6f" x="754.048828"/>
      <use xlink:href="#DejaVuSans-72" x="815.230469"/>
      <use xlink:href="#DejaVuSans-6b" x="856.34375"/>
     </g>
    </g>
    <g id="line2d_30">
     <path d="M 236.929375 188.604563 
L 246.929375 188.604563 
L 256.929375 188.604563 
" style="fill: none; stroke: #2ca02c; stroke-linecap: square"/>
    </g>
    <g id="text_20">
     <!-- head_resetting -->
     <g transform="translate(264.929375 192.104563) scale(0.1 -0.1)">
      <defs>
       <path id="DejaVuSans-68" d="M 3513 2113 
L 3513 0 
L 2938 0 
L 2938 2094 
Q 2938 2591 2744 2837 
Q 2550 3084 2163 3084 
Q 1697 3084 1428 2787 
Q 1159 2491 1159 1978 
L 1159 0 
L 581 0 
L 581 4863 
L 1159 4863 
L 1159 2956 
Q 1366 3272 1645 3428 
Q 1925 3584 2291 3584 
Q 2894 3584 3203 3211 
Q 3513 2838 3513 2113 
z
" transform="scale(0.015625)"/>
      </defs>
      <use xlink:href="#DejaVuSans-68"/>
      <use xlink:href="#DejaVuSans-65" x="63.378906"/>
      <use xlink:href="#DejaVuSans-61" x="124.902344"/>
      <use xlink:href="#DejaVuSans-64" x="186.181641"/>
      <use xlink:href="#DejaVuSans-5f" x="249.658203"/>
      <use xlink:href="#DejaVuSans-72" x="299.658203"/>
      <use xlink:href="#DejaVuSans-65" x="338.521484"/>
      <use xlink:href="#DejaVuSans-73" x="400.044922"/>
      <use xlink:href="#DejaVuSans-65" x="452.144531"/>
      <use xlink:href="#DejaVuSans-74" x="513.667969"/>
      <use xlink:href="#DejaVuSans-74" x="552.876953"/>
      <use xlink:href="#DejaVuSans-69" x="592.085938"/>
      <use xlink:href="#DejaVuSans-6e" x="619.869141"/>
      <use xlink:href="#DejaVuSans-67" x="683.248047"/>
     </g>
    </g>
    <g id="line2d_31">
     <path d="M 236.929375 203.560812 
L 246.929375 203.560812 
L 256.929375 203.560812 
" style="fill: none; stroke: #ff7f0e; stroke-linecap: square"/>
    </g>
    <g id="text_21">
     <!-- shrink_and_perturb -->
     <g transform="translate(264.929375 207.060812) scale(0.1 -0.1)">
      <use xlink:href="#DejaVuSans-73"/>
      <use xlink:href="#DejaVuSans-68" x="52.099609"/>
      <use xlink:href="#DejaVuSans-72" x="115.478516"/>
      <use xlink:href="#DejaVuSans-69" x="156.591797"/>
      <use xlink:href="#DejaVuSans-6e" x="184.375"/>
      <use xlink:href="#DejaVuSans-6b" x="247.753906"/>
      <use xlink:href="#DejaVuSans-5f" x="305.664062"/>
      <use xlink:href="#DejaVuSans-61" x="355.664062"/>
      <use xlink:href="#DejaVuSans-6e" x="416.943359"/>
      <use xlink:href="#DejaVuSans-64" x="480.322266"/>
      <use xlink:href="#DejaVuSans-5f" x="543.798828"/>
      <use xlink:href="#DejaVuSans-70" x="593.798828"/>
      <use xlink:href="#DejaVuSans-65" x="657.275391"/>
      <use xlink:href="#DejaVuSans-72" x="718.798828"/>
      <use xlink:href="#DejaVuSans-74" x="759.912109"/>
      <use xlink:href="#DejaVuSans-75" x="799.121094"/>
      <use xlink:href="#DejaVuSans-72" x="862.5"/>
      <use xlink:href="#DejaVuSans-62" x="903.613281"/>
     </g>
    </g>
   </g>
  </g>
 </g>
 <defs>
  <clipPath id="p65993bbcb5">
   <rect x="57.6" y="41.472" width="357.12" height="266.112"/>
  </clipPath>
 </defs>
</svg>
