<?xml version="1.0" encoding="utf-8" standalone="no"?>
<!DOCTYPE svg PUBLIC "-//W3C//DTD SVG 1.1//EN"
  "http://www.w3.org/Graphics/SVG/1.1/DTD/svg11.dtd">
<svg xmlns:xlink="http://www.w3.org/1999/xlink" width="460.8pt" height="345.6pt" viewBox="0 0 460.8 345.6" xmlns="http://www.w3.org/2000/svg" version="1.1">
 <metadata>
  <rdf:RDF xmlns:dc="http://purl.org/dc/elements/1.1/" xmlns:cc="http://creativecommons.org/ns#" xmlns:rdf="http://www.w3.org/1999/02/22-rdf-syntax-ns#">
   <cc:Work>
    <dc:type rdf:resource="http://purl.org/dc/dcmitype/StillImage"/>
    <dc:date>2025-07-04T07:38:33.150386</dc:date>
    <dc:format>image/svg+xml</dc:format>
    <dc:creator>
     <cc:Agent>
      <dc:title>Matplotlib v3.7.2, https://matplotlib.org/</dc:title>
     </cc:Agent>
    </dc:creator>
   </cc:Work>
  </rdf:RDF>
 </metadata>
 <defs>
  <style type="text/css">*{stroke-linejoin: round; stroke-linecap: butt}</style>
 </defs>
 <g id="figure_1">
  <g id="patch_1">
   <path d="M 0 345.6 
L 460.8 345.6 
L 460.8 0 
L 0 0 
z
" style="fill: #ffffff"/>
  </g>
  <g id="axes_1">
   <g id="patch_2">
    <path d="M 57.6 307.584 
L 414.72 307.584 
L 414.72 41.472 
L 57.6 41.472 
z
" style="fill: #ffffff"/>
   </g>
   <g id="PolyCollection_1">
    <defs>
     <path id="m47b7ea1106" d="M 73.832727 -50.112 
L 73.832727 -50.112 
L 90.919809 -189.058428 
L 108.00689 -180.447825 
L 125.093971 -170.83438 
L 142.181053 -184.149051 
L 159.268134 -193.639679 
L 176.355215 -199.915312 
L 193.442297 -231.183003 
L 210.529378 -228.204373 
L 227.616459 -245.565833 
L 244.703541 -249.058942 
L 261.790622 -261.84339 
L 278.877703 -268.467179 
L 295.964785 -269.10716 
L 313.051866 -274.731082 
L 330.138947 -280.137153 
L 347.226029 -282.53934 
L 364.31311 -289.134654 
L 381.400191 -287.5271 
L 398.487273 -292.032 
L 398.487273 -292.032 
L 398.487273 -292.032 
L 381.400191 -287.5271 
L 364.31311 -289.134654 
L 347.226029 -282.53934 
L 330.138947 -280.137153 
L 313.051866 -274.731082 
L 295.964785 -269.10716 
L 278.877703 -268.467179 
L 261.790622 -261.84339 
L 244.703541 -249.058942 
L 227.616459 -245.565833 
L 210.529378 -228.204373 
L 193.442297 -231.183003 
L 176.355215 -199.915312 
L 159.268134 -193.639679 
L 142.181053 -184.149051 
L 125.093971 -170.83438 
L 108.00689 -180.447825 
L 90.919809 -189.058428 
L 73.832727 -50.112 
z
" style="stroke: #fbe9e9"/>
    </defs>
    <g clip-path="url(#p3ea46863a9)">
     <use xlink:href="#m47b7ea1106" x="0" y="345.6" style="fill: #fbe9e9; stroke: #fbe9e9"/>
    </g>
   </g>
   <g id="PolyCollection_2">
    <defs>
     <path id="m8af70082d9" d="M 73.832727 -50.112 
L 73.832727 -50.112 
L 90.919809 -70.923006 
L 108.00689 -73.132315 
L 125.093971 -74.644598 
L 142.181053 -77.206043 
L 159.268134 -78.487927 
L 176.355215 -79.591769 
L 193.442297 -81.241861 
L 210.529378 -80.495006 
L 227.616459 -81.643088 
L 244.703541 -81.489165 
L 261.790622 -83.056718 
L 278.877703 -83.085361 
L 295.964785 -83.165066 
L 313.051866 -83.041061 
L 330.138947 -83.152836 
L 347.226029 -82.784015 
L 364.31311 -83.790293 
L 381.400191 -83.045191 
L 398.487273 -84.651315 
L 398.487273 -84.651315 
L 398.487273 -84.651315 
L 381.400191 -83.045191 
L 364.31311 -83.790293 
L 347.226029 -82.784015 
L 330.138947 -83.152836 
L 313.051866 -83.041061 
L 295.964785 -83.165066 
L 278.877703 -83.085361 
L 261.790622 -83.056718 
L 244.703541 -81.489165 
L 227.616459 -81.643088 
L 210.529378 -80.495006 
L 193.442297 -81.241861 
L 176.355215 -79.591769 
L 159.268134 -78.487927 
L 142.181053 -77.206043 
L 125.093971 -74.644598 
L 108.00689 -73.132315 
L 90.919809 -70.923006 
L 73.832727 -50.112 
z
" style="stroke: #e5f2fb"/>
    </defs>
    <g clip-path="url(#p3ea46863a9)">
     <use xlink:href="#m8af70082d9" x="0" y="345.6" style="fill: #e5f2fb; stroke: #e5f2fb"/>
    </g>
   </g>
   <g id="PolyCollection_3">
    <defs>
     <path id="m59cbf3881c" d="M 73.832727 -50.112 
L 73.832727 -50.112 
L 90.919809 -71.074966 
L 108.00689 -72.588119 
L 125.093971 -75.52187 
L 142.181053 -78.48177 
L 159.268134 -78.792822 
L 176.355215 -80.014861 
L 193.442297 -80.160631 
L 210.529378 -82.427466 
L 227.616459 -82.175885 
L 244.703541 -83.240807 
L 261.790622 -81.792323 
L 278.877703 -82.115848 
L 295.964785 -83.308236 
L 313.051866 -83.767304 
L 330.138947 -83.659914 
L 347.226029 -82.629152 
L 364.31311 -83.390258 
L 381.400191 -84.107436 
L 398.487273 -83.838695 
L 398.487273 -83.838695 
L 398.487273 -83.838695 
L 381.400191 -84.107436 
L 364.31311 -83.390258 
L 347.226029 -82.629152 
L 330.138947 -83.659914 
L 313.051866 -83.767304 
L 295.964785 -83.308236 
L 278.877703 -82.115848 
L 261.790622 -81.792323 
L 244.703541 -83.240807 
L 227.616459 -82.175885 
L 210.529378 -82.427466 
L 193.442297 -80.160631 
L 176.355215 -80.014861 
L 159.268134 -78.792822 
L 142.181053 -78.48177 
L 125.093971 -75.52187 
L 108.00689 -72.588119 
L 90.919809 -71.074966 
L 73.832727 -50.112 
z
" style="stroke: #f2f2f2"/>
    </defs>
    <g clip-path="url(#p3ea46863a9)">
     <use xlink:href="#m59cbf3881c" x="0" y="345.6" style="fill: #f2f2f2; stroke: #f2f2f2"/>
    </g>
   </g>
   <g id="PolyCollection_4">
    <defs>
     <path id="madaacc3c83" d="M 73.832727 -50.112 
L 73.832727 -50.112 
L 90.919809 -73.135247 
L 108.00689 -72.507413 
L 125.093971 -74.978105 
L 142.181053 -77.006935 
L 159.268134 -78.214038 
L 176.355215 -80.821833 
L 193.442297 -79.610679 
L 210.529378 -80.584655 
L 227.616459 -82.773637 
L 244.703541 -81.724452 
L 261.790622 -81.303614 
L 278.877703 -82.573978 
L 295.964785 -83.018034 
L 313.051866 -83.29497 
L 330.138947 -83.311603 
L 347.226029 -83.464443 
L 364.31311 -83.515585 
L 381.400191 -83.512571 
L 398.487273 -83.671469 
L 398.487273 -83.671469 
L 398.487273 -83.671469 
L 381.400191 -83.512571 
L 364.31311 -83.515585 
L 347.226029 -83.464443 
L 330.138947 -83.311603 
L 313.051866 -83.29497 
L 295.964785 -83.018034 
L 278.877703 -82.573978 
L 261.790622 -81.303614 
L 244.703541 -81.724452 
L 227.616459 -82.773637 
L 210.529378 -80.584655 
L 193.442297 -79.610679 
L 176.355215 -80.821833 
L 159.268134 -78.214038 
L 142.181053 -77.006935 
L 125.093971 -74.978105 
L 108.00689 -72.507413 
L 90.919809 -73.135247 
L 73.832727 -50.112 
z
" style="stroke: #e7f8e7"/>
    </defs>
    <g clip-path="url(#p3ea46863a9)">
     <use xlink:href="#madaacc3c83" x="0" y="345.6" style="fill: #e7f8e7; stroke: #e7f8e7"/>
    </g>
   </g>
   <g id="PolyCollection_5">
    <defs>
     <path id="m6505de7e91" d="M 73.832727 -50.112 
L 73.832727 -50.112 
L 90.919809 -69.958452 
L 108.00689 -72.22538 
L 125.093971 -74.70949 
L 142.181053 -76.345956 
L 159.268134 -78.741151 
L 176.355215 -80.132045 
L 193.442297 -79.539983 
L 210.529378 -82.853787 
L 227.616459 -81.742812 
L 244.703541 -81.855417 
L 261.790622 -82.252843 
L 278.877703 -82.587148 
L 295.964785 -83.181315 
L 313.051866 -82.908173 
L 330.138947 -82.654462 
L 347.226029 -83.312001 
L 364.31311 -83.985818 
L 381.400191 -84.104555 
L 398.487273 -82.907042 
L 398.487273 -82.907042 
L 398.487273 -82.907042 
L 381.400191 -84.104555 
L 364.31311 -83.985818 
L 347.226029 -83.312001 
L 330.138947 -82.654462 
L 313.051866 -82.908173 
L 295.964785 -83.181315 
L 278.877703 -82.587148 
L 261.790622 -82.252843 
L 244.703541 -81.855417 
L 227.616459 -81.742812 
L 210.529378 -82.853787 
L 193.442297 -79.539983 
L 176.355215 -80.132045 
L 159.268134 -78.741151 
L 142.181053 -76.345956 
L 125.093971 -74.70949 
L 108.00689 -72.22538 
L 90.919809 -69.958452 
L 73.832727 -50.112 
z
" style="stroke: #fff2e7"/>
    </defs>
    <g clip-path="url(#p3ea46863a9)">
     <use xlink:href="#m6505de7e91" x="0" y="345.6" style="fill: #fff2e7; stroke: #fff2e7"/>
    </g>
   </g>
   <g id="matplotlib.axis_1">
    <g id="xtick_1">
     <g id="line2d_1">
      <defs>
       <path id="md5bd52003e" d="M 0 0 
L 0 3.5 
" style="stroke: #000000; stroke-width: 0.8"/>
      </defs>
      <g>
       <use xlink:href="#md5bd52003e" x="99.463349" y="307.584" style="stroke: #000000; stroke-width: 0.8"/>
      </g>
     </g>
     <g id="text_1">
      <!-- 2.5 -->
      <g transform="translate(91.511787 322.182437) scale(0.1 -0.1)">
       <defs>
        <path id="DejaVuSans-32" d="M 1228 531 
L 3431 531 
L 3431 0 
L 469 0 
L 469 531 
Q 828 903 1448 1529 
Q 2069 2156 2228 2338 
Q 2531 2678 2651 2914 
Q 2772 3150 2772 3378 
Q 2772 3750 2511 3984 
Q 2250 4219 1831 4219 
Q 1534 4219 1204 4116 
Q 875 4013 500 3803 
L 500 4441 
Q 881 4594 1212 4672 
Q 1544 4750 1819 4750 
Q 2544 4750 2975 4387 
Q 3406 4025 3406 3419 
Q 3406 3131 3298 2873 
Q 3191 2616 2906 2266 
Q 2828 2175 2409 1742 
Q 1991 1309 1228 531 
z
" transform="scale(0.015625)"/>
        <path id="DejaVuSans-2e" d="M 684 794 
L 1344 794 
L 1344 0 
L 684 0 
L 684 794 
z
" transform="scale(0.015625)"/>
        <path id="DejaVuSans-35" d="M 691 4666 
L 3169 4666 
L 3169 4134 
L 1269 4134 
L 1269 2991 
Q 1406 3038 1543 3061 
Q 1681 3084 1819 3084 
Q 2600 3084 3056 2656 
Q 3513 2228 3513 1497 
Q 3513 744 3044 326 
Q 2575 -91 1722 -91 
Q 1428 -91 1123 -41 
Q 819 9 494 109 
L 494 744 
Q 775 591 1075 516 
Q 1375 441 1709 441 
Q 2250 441 2565 725 
Q 2881 1009 2881 1497 
Q 2881 1984 2565 2268 
Q 2250 2553 1709 2553 
Q 1456 2553 1204 2497 
Q 953 2441 691 2322 
L 691 4666 
z
" transform="scale(0.015625)"/>
       </defs>
       <use xlink:href="#DejaVuSans-32"/>
       <use xlink:href="#DejaVuSans-2e" x="63.623047"/>
       <use xlink:href="#DejaVuSans-35" x="95.410156"/>
      </g>
     </g>
    </g>
    <g id="xtick_2">
     <g id="line2d_2">
      <g>
       <use xlink:href="#md5bd52003e" x="142.181053" y="307.584" style="stroke: #000000; stroke-width: 0.8"/>
      </g>
     </g>
     <g id="text_2">
      <!-- 5.0 -->
      <g transform="translate(134.22949 322.182437) scale(0.1 -0.1)">
       <defs>
        <path id="DejaVuSans-30" d="M 2034 4250 
Q 1547 4250 1301 3770 
Q 1056 3291 1056 2328 
Q 1056 1369 1301 889 
Q 1547 409 2034 409 
Q 2525 409 2770 889 
Q 3016 1369 3016 2328 
Q 3016 3291 2770 3770 
Q 2525 4250 2034 4250 
z
M 2034 4750 
Q 2819 4750 3233 4129 
Q 3647 3509 3647 2328 
Q 3647 1150 3233 529 
Q 2819 -91 2034 -91 
Q 1250 -91 836 529 
Q 422 1150 422 2328 
Q 422 3509 836 4129 
Q 1250 4750 2034 4750 
z
" transform="scale(0.015625)"/>
       </defs>
       <use xlink:href="#DejaVuSans-35"/>
       <use xlink:href="#DejaVuSans-2e" x="63.623047"/>
       <use xlink:href="#DejaVuSans-30" x="95.410156"/>
      </g>
     </g>
    </g>
    <g id="xtick_3">
     <g id="line2d_3">
      <g>
       <use xlink:href="#md5bd52003e" x="184.898756" y="307.584" style="stroke: #000000; stroke-width: 0.8"/>
      </g>
     </g>
     <g id="text_3">
      <!-- 7.5 -->
      <g transform="translate(176.947193 322.182437) scale(0.1 -0.1)">
       <defs>
        <path id="DejaVuSans-37" d="M 525 4666 
L 3525 4666 
L 3525 4397 
L 1831 0 
L 1172 0 
L 2766 4134 
L 525 4134 
L 525 4666 
z
" transform="scale(0.015625)"/>
       </defs>
       <use xlink:href="#DejaVuSans-37"/>
       <use xlink:href="#DejaVuSans-2e" x="63.623047"/>
       <use xlink:href="#DejaVuSans-35" x="95.410156"/>
      </g>
     </g>
    </g>
    <g id="xtick_4">
     <g id="line2d_4">
      <g>
       <use xlink:href="#md5bd52003e" x="227.616459" y="307.584" style="stroke: #000000; stroke-width: 0.8"/>
      </g>
     </g>
     <g id="text_4">
      <!-- 10.0 -->
      <g transform="translate(216.483647 322.182437) scale(0.1 -0.1)">
       <defs>
        <path id="DejaVuSans-31" d="M 794 531 
L 1825 531 
L 1825 4091 
L 703 3866 
L 703 4441 
L 1819 4666 
L 2450 4666 
L 2450 531 
L 3481 531 
L 3481 0 
L 794 0 
L 794 531 
z
" transform="scale(0.015625)"/>
       </defs>
       <use xlink:href="#DejaVuSans-31"/>
       <use xlink:href="#DejaVuSans-30" x="63.623047"/>
       <use xlink:href="#DejaVuSans-2e" x="127.246094"/>
       <use xlink:href="#DejaVuSans-30" x="159.033203"/>
      </g>
     </g>
    </g>
    <g id="xtick_5">
     <g id="line2d_5">
      <g>
       <use xlink:href="#md5bd52003e" x="270.334163" y="307.584" style="stroke: #000000; stroke-width: 0.8"/>
      </g>
     </g>
     <g id="text_5">
      <!-- 12.5 -->
      <g transform="translate(259.20135 322.182437) scale(0.1 -0.1)">
       <use xlink:href="#DejaVuSans-31"/>
       <use xlink:href="#DejaVuSans-32" x="63.623047"/>
       <use xlink:href="#DejaVuSans-2e" x="127.246094"/>
       <use xlink:href="#DejaVuSans-35" x="159.033203"/>
      </g>
     </g>
    </g>
    <g id="xtick_6">
     <g id="line2d_6">
      <g>
       <use xlink:href="#md5bd52003e" x="313.051866" y="307.584" style="stroke: #000000; stroke-width: 0.8"/>
      </g>
     </g>
     <g id="text_6">
      <!-- 15.0 -->
      <g transform="translate(301.919054 322.182437) scale(0.1 -0.1)">
       <use xlink:href="#DejaVuSans-31"/>
       <use xlink:href="#DejaVuSans-35" x="63.623047"/>
       <use xlink:href="#DejaVuSans-2e" x="127.246094"/>
       <use xlink:href="#DejaVuSans-30" x="159.033203"/>
      </g>
     </g>
    </g>
    <g id="xtick_7">
     <g id="line2d_7">
      <g>
       <use xlink:href="#md5bd52003e" x="355.769569" y="307.584" style="stroke: #000000; stroke-width: 0.8"/>
      </g>
     </g>
     <g id="text_7">
      <!-- 17.5 -->
      <g transform="translate(344.636757 322.182437) scale(0.1 -0.1)">
       <use xlink:href="#DejaVuSans-31"/>
       <use xlink:href="#DejaVuSans-37" x="63.623047"/>
       <use xlink:href="#DejaVuSans-2e" x="127.246094"/>
       <use xlink:href="#DejaVuSans-35" x="159.033203"/>
      </g>
     </g>
    </g>
    <g id="xtick_8">
     <g id="line2d_8">
      <g>
       <use xlink:href="#md5bd52003e" x="398.487273" y="307.584" style="stroke: #000000; stroke-width: 0.8"/>
      </g>
     </g>
     <g id="text_8">
      <!-- 20.0 -->
      <g transform="translate(387.35446 322.182437) scale(0.1 -0.1)">
       <use xlink:href="#DejaVuSans-32"/>
       <use xlink:href="#DejaVuSans-30" x="63.623047"/>
       <use xlink:href="#DejaVuSans-2e" x="127.246094"/>
       <use xlink:href="#DejaVuSans-30" x="159.033203"/>
      </g>
     </g>
    </g>
    <g id="text_9">
     <!-- Task Number -->
     <g transform="translate(203.692031 335.860562) scale(0.1 -0.1)">
      <defs>
       <path id="DejaVuSans-54" d="M -19 4666 
L 3928 4666 
L 3928 4134 
L 2272 4134 
L 2272 0 
L 1638 0 
L 1638 4134 
L -19 4134 
L -19 4666 
z
" transform="scale(0.015625)"/>
       <path id="DejaVuSans-61" d="M 2194 1759 
Q 1497 1759 1228 1600 
Q 959 1441 959 1056 
Q 959 750 1161 570 
Q 1363 391 1709 391 
Q 2188 391 2477 730 
Q 2766 1069 2766 1631 
L 2766 1759 
L 2194 1759 
z
M 3341 1997 
L 3341 0 
L 2766 0 
L 2766 531 
Q 2569 213 2275 61 
Q 1981 -91 1556 -91 
Q 1019 -91 701 211 
Q 384 513 384 1019 
Q 384 1609 779 1909 
Q 1175 2209 1959 2209 
L 2766 2209 
L 2766 2266 
Q 2766 2663 2505 2880 
Q 2244 3097 1772 3097 
Q 1472 3097 1187 3025 
Q 903 2953 641 2809 
L 641 3341 
Q 956 3463 1253 3523 
Q 1550 3584 1831 3584 
Q 2591 3584 2966 3190 
Q 3341 2797 3341 1997 
z
" transform="scale(0.015625)"/>
       <path id="DejaVuSans-73" d="M 2834 3397 
L 2834 2853 
Q 2591 2978 2328 3040 
Q 2066 3103 1784 3103 
Q 1356 3103 1142 2972 
Q 928 2841 928 2578 
Q 928 2378 1081 2264 
Q 1234 2150 1697 2047 
L 1894 2003 
Q 2506 1872 2764 1633 
Q 3022 1394 3022 966 
Q 3022 478 2636 193 
Q 2250 -91 1575 -91 
Q 1294 -91 989 -36 
Q 684 19 347 128 
L 347 722 
Q 666 556 975 473 
Q 1284 391 1588 391 
Q 1994 391 2212 530 
Q 2431 669 2431 922 
Q 2431 1156 2273 1281 
Q 2116 1406 1581 1522 
L 1381 1569 
Q 847 1681 609 1914 
Q 372 2147 372 2553 
Q 372 3047 722 3315 
Q 1072 3584 1716 3584 
Q 2034 3584 2315 3537 
Q 2597 3491 2834 3397 
z
" transform="scale(0.015625)"/>
       <path id="DejaVuSans-6b" d="M 581 4863 
L 1159 4863 
L 1159 1991 
L 2875 3500 
L 3609 3500 
L 1753 1863 
L 3688 0 
L 2938 0 
L 1159 1709 
L 1159 0 
L 581 0 
L 581 4863 
z
" transform="scale(0.015625)"/>
       <path id="DejaVuSans-20" transform="scale(0.015625)"/>
       <path id="DejaVuSans-4e" d="M 628 4666 
L 1478 4666 
L 3547 763 
L 3547 4666 
L 4159 4666 
L 4159 0 
L 3309 0 
L 1241 3903 
L 1241 0 
L 628 0 
L 628 4666 
z
" transform="scale(0.015625)"/>
       <path id="DejaVuSans-75" d="M 544 1381 
L 544 3500 
L 1119 3500 
L 1119 1403 
Q 1119 906 1312 657 
Q 1506 409 1894 409 
Q 2359 409 2629 706 
Q 2900 1003 2900 1516 
L 2900 3500 
L 3475 3500 
L 3475 0 
L 2900 0 
L 2900 538 
Q 2691 219 2414 64 
Q 2138 -91 1772 -91 
Q 1169 -91 856 284 
Q 544 659 544 1381 
z
M 1991 3584 
L 1991 3584 
z
" transform="scale(0.015625)"/>
       <path id="DejaVuSans-6d" d="M 3328 2828 
Q 3544 3216 3844 3400 
Q 4144 3584 4550 3584 
Q 5097 3584 5394 3201 
Q 5691 2819 5691 2113 
L 5691 0 
L 5113 0 
L 5113 2094 
Q 5113 2597 4934 2840 
Q 4756 3084 4391 3084 
Q 3944 3084 3684 2787 
Q 3425 2491 3425 1978 
L 3425 0 
L 2847 0 
L 2847 2094 
Q 2847 2600 2669 2842 
Q 2491 3084 2119 3084 
Q 1678 3084 1418 2786 
Q 1159 2488 1159 1978 
L 1159 0 
L 581 0 
L 581 3500 
L 1159 3500 
L 1159 2956 
Q 1356 3278 1631 3431 
Q 1906 3584 2284 3584 
Q 2666 3584 2933 3390 
Q 3200 3197 3328 2828 
z
" transform="scale(0.015625)"/>
       <path id="DejaVuSans-62" d="M 3116 1747 
Q 3116 2381 2855 2742 
Q 2594 3103 2138 3103 
Q 1681 3103 1420 2742 
Q 1159 2381 1159 1747 
Q 1159 1113 1420 752 
Q 1681 391 2138 391 
Q 2594 391 2855 752 
Q 3116 1113 3116 1747 
z
M 1159 2969 
Q 1341 3281 1617 3432 
Q 1894 3584 2278 3584 
Q 2916 3584 3314 3078 
Q 3713 2572 3713 1747 
Q 3713 922 3314 415 
Q 2916 -91 2278 -91 
Q 1894 -91 1617 61 
Q 1341 213 1159 525 
L 1159 0 
L 581 0 
L 581 4863 
L 1159 4863 
L 1159 2969 
z
" transform="scale(0.015625)"/>
       <path id="DejaVuSans-65" d="M 3597 1894 
L 3597 1613 
L 953 1613 
Q 991 1019 1311 708 
Q 1631 397 2203 397 
Q 2534 397 2845 478 
Q 3156 559 3463 722 
L 3463 178 
Q 3153 47 2828 -22 
Q 2503 -91 2169 -91 
Q 1331 -91 842 396 
Q 353 884 353 1716 
Q 353 2575 817 3079 
Q 1281 3584 2069 3584 
Q 2775 3584 3186 3129 
Q 3597 2675 3597 1894 
z
M 3022 2063 
Q 3016 2534 2758 2815 
Q 2500 3097 2075 3097 
Q 1594 3097 1305 2825 
Q 1016 2553 972 2059 
L 3022 2063 
z
" transform="scale(0.015625)"/>
       <path id="DejaVuSans-72" d="M 2631 2963 
Q 2534 3019 2420 3045 
Q 2306 3072 2169 3072 
Q 1681 3072 1420 2755 
Q 1159 2438 1159 1844 
L 1159 0 
L 581 0 
L 581 3500 
L 1159 3500 
L 1159 2956 
Q 1341 3275 1631 3429 
Q 1922 3584 2338 3584 
Q 2397 3584 2469 3576 
Q 2541 3569 2628 3553 
L 2631 2963 
z
" transform="scale(0.015625)"/>
      </defs>
      <use xlink:href="#DejaVuSans-54"/>
      <use xlink:href="#DejaVuSans-61" x="44.583984"/>
      <use xlink:href="#DejaVuSans-73" x="105.863281"/>
      <use xlink:href="#DejaVuSans-6b" x="157.962891"/>
      <use xlink:href="#DejaVuSans-20" x="215.873047"/>
      <use xlink:href="#DejaVuSans-4e" x="247.660156"/>
      <use xlink:href="#DejaVuSans-75" x="322.464844"/>
      <use xlink:href="#DejaVuSans-6d" x="385.84375"/>
      <use xlink:href="#DejaVuSans-62" x="483.255859"/>
      <use xlink:href="#DejaVuSans-65" x="546.732422"/>
      <use xlink:href="#DejaVuSans-72" x="608.255859"/>
     </g>
    </g>
   </g>
   <g id="matplotlib.axis_2">
    <g id="ytick_1">
     <g id="line2d_9">
      <path d="M 57.6 295.488 
L 414.72 295.488 
" clip-path="url(#p3ea46863a9)" style="fill: none; stroke: #b0b0b0; stroke-width: 0.8; stroke-linecap: square"/>
     </g>
     <g id="line2d_10">
      <defs>
       <path id="m1a96e626e0" d="M 0 0 
L -3.5 0 
" style="stroke: #000000; stroke-width: 0.8"/>
      </defs>
      <g>
       <use xlink:href="#m1a96e626e0" x="57.6" y="295.488" style="stroke: #000000; stroke-width: 0.8"/>
      </g>
     </g>
     <g id="text_10">
      <!-- 0.00 -->
      <g transform="translate(28.334375 299.287219) scale(0.1 -0.1)">
       <use xlink:href="#DejaVuSans-30"/>
       <use xlink:href="#DejaVuSans-2e" x="63.623047"/>
       <use xlink:href="#DejaVuSans-30" x="95.410156"/>
       <use xlink:href="#DejaVuSans-30" x="159.033203"/>
      </g>
     </g>
    </g>
    <g id="ytick_2">
     <g id="line2d_11">
      <path d="M 57.6 264.080089 
L 414.72 264.080089 
" clip-path="url(#p3ea46863a9)" style="fill: none; stroke: #b0b0b0; stroke-width: 0.8; stroke-linecap: square"/>
     </g>
     <g id="line2d_12">
      <g>
       <use xlink:href="#m1a96e626e0" x="57.6" y="264.080089" style="stroke: #000000; stroke-width: 0.8"/>
      </g>
     </g>
     <g id="text_11">
      <!-- 0.05 -->
      <g transform="translate(28.334375 267.879308) scale(0.1 -0.1)">
       <use xlink:href="#DejaVuSans-30"/>
       <use xlink:href="#DejaVuSans-2e" x="63.623047"/>
       <use xlink:href="#DejaVuSans-30" x="95.410156"/>
       <use xlink:href="#DejaVuSans-35" x="159.033203"/>
      </g>
     </g>
    </g>
    <g id="ytick_3">
     <g id="line2d_13">
      <path d="M 57.6 232.672179 
L 414.72 232.672179 
" clip-path="url(#p3ea46863a9)" style="fill: none; stroke: #b0b0b0; stroke-width: 0.8; stroke-linecap: square"/>
     </g>
     <g id="line2d_14">
      <g>
       <use xlink:href="#m1a96e626e0" x="57.6" y="232.672179" style="stroke: #000000; stroke-width: 0.8"/>
      </g>
     </g>
     <g id="text_12">
      <!-- 0.10 -->
      <g transform="translate(28.334375 236.471398) scale(0.1 -0.1)">
       <use xlink:href="#DejaVuSans-30"/>
       <use xlink:href="#DejaVuSans-2e" x="63.623047"/>
       <use xlink:href="#DejaVuSans-31" x="95.410156"/>
       <use xlink:href="#DejaVuSans-30" x="159.033203"/>
      </g>
     </g>
    </g>
    <g id="ytick_4">
     <g id="line2d_15">
      <path d="M 57.6 201.264268 
L 414.72 201.264268 
" clip-path="url(#p3ea46863a9)" style="fill: none; stroke: #b0b0b0; stroke-width: 0.8; stroke-linecap: square"/>
     </g>
     <g id="line2d_16">
      <g>
       <use xlink:href="#m1a96e626e0" x="57.6" y="201.264268" style="stroke: #000000; stroke-width: 0.8"/>
      </g>
     </g>
     <g id="text_13">
      <!-- 0.15 -->
      <g transform="translate(28.334375 205.063487) scale(0.1 -0.1)">
       <use xlink:href="#DejaVuSans-30"/>
       <use xlink:href="#DejaVuSans-2e" x="63.623047"/>
       <use xlink:href="#DejaVuSans-31" x="95.410156"/>
       <use xlink:href="#DejaVuSans-35" x="159.033203"/>
      </g>
     </g>
    </g>
    <g id="ytick_5">
     <g id="line2d_17">
      <path d="M 57.6 169.856358 
L 414.72 169.856358 
" clip-path="url(#p3ea46863a9)" style="fill: none; stroke: #b0b0b0; stroke-width: 0.8; stroke-linecap: square"/>
     </g>
     <g id="line2d_18">
      <g>
       <use xlink:href="#m1a96e626e0" x="57.6" y="169.856358" style="stroke: #000000; stroke-width: 0.8"/>
      </g>
     </g>
     <g id="text_14">
      <!-- 0.20 -->
      <g transform="translate(28.334375 173.655576) scale(0.1 -0.1)">
       <use xlink:href="#DejaVuSans-30"/>
       <use xlink:href="#DejaVuSans-2e" x="63.623047"/>
       <use xlink:href="#DejaVuSans-32" x="95.410156"/>
       <use xlink:href="#DejaVuSans-30" x="159.033203"/>
      </g>
     </g>
    </g>
    <g id="ytick_6">
     <g id="line2d_19">
      <path d="M 57.6 138.448447 
L 414.72 138.448447 
" clip-path="url(#p3ea46863a9)" style="fill: none; stroke: #b0b0b0; stroke-width: 0.8; stroke-linecap: square"/>
     </g>
     <g id="line2d_20">
      <g>
       <use xlink:href="#m1a96e626e0" x="57.6" y="138.448447" style="stroke: #000000; stroke-width: 0.8"/>
      </g>
     </g>
     <g id="text_15">
      <!-- 0.25 -->
      <g transform="translate(28.334375 142.247666) scale(0.1 -0.1)">
       <use xlink:href="#DejaVuSans-30"/>
       <use xlink:href="#DejaVuSans-2e" x="63.623047"/>
       <use xlink:href="#DejaVuSans-32" x="95.410156"/>
       <use xlink:href="#DejaVuSans-35" x="159.033203"/>
      </g>
     </g>
    </g>
    <g id="ytick_7">
     <g id="line2d_21">
      <path d="M 57.6 107.040536 
L 414.72 107.040536 
" clip-path="url(#p3ea46863a9)" style="fill: none; stroke: #b0b0b0; stroke-width: 0.8; stroke-linecap: square"/>
     </g>
     <g id="line2d_22">
      <g>
       <use xlink:href="#m1a96e626e0" x="57.6" y="107.040536" style="stroke: #000000; stroke-width: 0.8"/>
      </g>
     </g>
     <g id="text_16">
      <!-- 0.30 -->
      <g transform="translate(28.334375 110.839755) scale(0.1 -0.1)">
       <defs>
        <path id="DejaVuSans-33" d="M 2597 2516 
Q 3050 2419 3304 2112 
Q 3559 1806 3559 1356 
Q 3559 666 3084 287 
Q 2609 -91 1734 -91 
Q 1441 -91 1130 -33 
Q 819 25 488 141 
L 488 750 
Q 750 597 1062 519 
Q 1375 441 1716 441 
Q 2309 441 2620 675 
Q 2931 909 2931 1356 
Q 2931 1769 2642 2001 
Q 2353 2234 1838 2234 
L 1294 2234 
L 1294 2753 
L 1863 2753 
Q 2328 2753 2575 2939 
Q 2822 3125 2822 3475 
Q 2822 3834 2567 4026 
Q 2313 4219 1838 4219 
Q 1578 4219 1281 4162 
Q 984 4106 628 3988 
L 628 4550 
Q 988 4650 1302 4700 
Q 1616 4750 1894 4750 
Q 2613 4750 3031 4423 
Q 3450 4097 3450 3541 
Q 3450 3153 3228 2886 
Q 3006 2619 2597 2516 
z
" transform="scale(0.015625)"/>
       </defs>
       <use xlink:href="#DejaVuSans-30"/>
       <use xlink:href="#DejaVuSans-2e" x="63.623047"/>
       <use xlink:href="#DejaVuSans-33" x="95.410156"/>
       <use xlink:href="#DejaVuSans-30" x="159.033203"/>
      </g>
     </g>
    </g>
    <g id="ytick_8">
     <g id="line2d_23">
      <path d="M 57.6 75.632626 
L 414.72 75.632626 
" clip-path="url(#p3ea46863a9)" style="fill: none; stroke: #b0b0b0; stroke-width: 0.8; stroke-linecap: square"/>
     </g>
     <g id="line2d_24">
      <g>
       <use xlink:href="#m1a96e626e0" x="57.6" y="75.632626" style="stroke: #000000; stroke-width: 0.8"/>
      </g>
     </g>
     <g id="text_17">
      <!-- 0.35 -->
      <g transform="translate(28.334375 79.431845) scale(0.1 -0.1)">
       <use xlink:href="#DejaVuSans-30"/>
       <use xlink:href="#DejaVuSans-2e" x="63.623047"/>
       <use xlink:href="#DejaVuSans-33" x="95.410156"/>
       <use xlink:href="#DejaVuSans-35" x="159.033203"/>
      </g>
     </g>
    </g>
    <g id="ytick_9">
     <g id="line2d_25">
      <path d="M 57.6 44.224715 
L 414.72 44.224715 
" clip-path="url(#p3ea46863a9)" style="fill: none; stroke: #b0b0b0; stroke-width: 0.8; stroke-linecap: square"/>
     </g>
     <g id="line2d_26">
      <g>
       <use xlink:href="#m1a96e626e0" x="57.6" y="44.224715" style="stroke: #000000; stroke-width: 0.8"/>
      </g>
     </g>
     <g id="text_18">
      <!-- 0.40 -->
      <g transform="translate(28.334375 48.023934) scale(0.1 -0.1)">
       <defs>
        <path id="DejaVuSans-34" d="M 2419 4116 
L 825 1625 
L 2419 1625 
L 2419 4116 
z
M 2253 4666 
L 3047 4666 
L 3047 1625 
L 3713 1625 
L 3713 1100 
L 3047 1100 
L 3047 0 
L 2419 0 
L 2419 1100 
L 313 1100 
L 313 1709 
L 2253 4666 
z
" transform="scale(0.015625)"/>
       </defs>
       <use xlink:href="#DejaVuSans-30"/>
       <use xlink:href="#DejaVuSans-2e" x="63.623047"/>
       <use xlink:href="#DejaVuSans-34" x="95.410156"/>
       <use xlink:href="#DejaVuSans-30" x="159.033203"/>
      </g>
     </g>
    </g>
    <g id="text_19">
     <!-- previous_tasks_effective_rank_analysis -->
     <g transform="translate(21.976562 272.267063) rotate(-90) scale(0.1 -0.1)">
      <defs>
       <path id="DejaVuSans-70" d="M 1159 525 
L 1159 -1331 
L 581 -1331 
L 581 3500 
L 1159 3500 
L 1159 2969 
Q 1341 3281 1617 3432 
Q 1894 3584 2278 3584 
Q 2916 3584 3314 3078 
Q 3713 2572 3713 1747 
Q 3713 922 3314 415 
Q 2916 -91 2278 -91 
Q 1894 -91 1617 61 
Q 1341 213 1159 525 
z
M 3116 1747 
Q 3116 2381 2855 2742 
Q 2594 3103 2138 3103 
Q 1681 3103 1420 2742 
Q 1159 2381 1159 1747 
Q 1159 1113 1420 752 
Q 1681 391 2138 391 
Q 2594 391 2855 752 
Q 3116 1113 3116 1747 
z
" transform="scale(0.015625)"/>
       <path id="DejaVuSans-76" d="M 191 3500 
L 800 3500 
L 1894 563 
L 2988 3500 
L 3597 3500 
L 2284 0 
L 1503 0 
L 191 3500 
z
" transform="scale(0.015625)"/>
       <path id="DejaVuSans-69" d="M 603 3500 
L 1178 3500 
L 1178 0 
L 603 0 
L 603 3500 
z
M 603 4863 
L 1178 4863 
L 1178 4134 
L 603 4134 
L 603 4863 
z
" transform="scale(0.015625)"/>
       <path id="DejaVuSans-6f" d="M 1959 3097 
Q 1497 3097 1228 2736 
Q 959 2375 959 1747 
Q 959 1119 1226 758 
Q 1494 397 1959 397 
Q 2419 397 2687 759 
Q 2956 1122 2956 1747 
Q 2956 2369 2687 2733 
Q 2419 3097 1959 3097 
z
M 1959 3584 
Q 2709 3584 3137 3096 
Q 3566 2609 3566 1747 
Q 3566 888 3137 398 
Q 2709 -91 1959 -91 
Q 1206 -91 779 398 
Q 353 888 353 1747 
Q 353 2609 779 3096 
Q 1206 3584 1959 3584 
z
" transform="scale(0.015625)"/>
       <path id="DejaVuSans-5f" d="M 3263 -1063 
L 3263 -1509 
L -63 -1509 
L -63 -1063 
L 3263 -1063 
z
" transform="scale(0.015625)"/>
       <path id="DejaVuSans-74" d="M 1172 4494 
L 1172 3500 
L 2356 3500 
L 2356 3053 
L 1172 3053 
L 1172 1153 
Q 1172 725 1289 603 
Q 1406 481 1766 481 
L 2356 481 
L 2356 0 
L 1766 0 
Q 1100 0 847 248 
Q 594 497 594 1153 
L 594 3053 
L 172 3053 
L 172 3500 
L 594 3500 
L 594 4494 
L 1172 4494 
z
" transform="scale(0.015625)"/>
       <path id="DejaVuSans-66" d="M 2375 4863 
L 2375 4384 
L 1825 4384 
Q 1516 4384 1395 4259 
Q 1275 4134 1275 3809 
L 1275 3500 
L 2222 3500 
L 2222 3053 
L 1275 3053 
L 1275 0 
L 697 0 
L 697 3053 
L 147 3053 
L 147 3500 
L 697 3500 
L 697 3744 
Q 697 4328 969 4595 
Q 1241 4863 1831 4863 
L 2375 4863 
z
" transform="scale(0.015625)"/>
       <path id="DejaVuSans-63" d="M 3122 3366 
L 3122 2828 
Q 2878 2963 2633 3030 
Q 2388 3097 2138 3097 
Q 1578 3097 1268 2742 
Q 959 2388 959 1747 
Q 959 1106 1268 751 
Q 1578 397 2138 397 
Q 2388 397 2633 464 
Q 2878 531 3122 666 
L 3122 134 
Q 2881 22 2623 -34 
Q 2366 -91 2075 -91 
Q 1284 -91 818 406 
Q 353 903 353 1747 
Q 353 2603 823 3093 
Q 1294 3584 2113 3584 
Q 2378 3584 2631 3529 
Q 2884 3475 3122 3366 
z
" transform="scale(0.015625)"/>
       <path id="DejaVuSans-6e" d="M 3513 2113 
L 3513 0 
L 2938 0 
L 2938 2094 
Q 2938 2591 2744 2837 
Q 2550 3084 2163 3084 
Q 1697 3084 1428 2787 
Q 1159 2491 1159 1978 
L 1159 0 
L 581 0 
L 581 3500 
L 1159 3500 
L 1159 2956 
Q 1366 3272 1645 3428 
Q 1925 3584 2291 3584 
Q 2894 3584 3203 3211 
Q 3513 2838 3513 2113 
z
" transform="scale(0.015625)"/>
       <path id="DejaVuSans-6c" d="M 603 4863 
L 1178 4863 
L 1178 0 
L 603 0 
L 603 4863 
z
" transform="scale(0.015625)"/>
       <path id="DejaVuSans-79" d="M 2059 -325 
Q 1816 -950 1584 -1140 
Q 1353 -1331 966 -1331 
L 506 -1331 
L 506 -850 
L 844 -850 
Q 1081 -850 1212 -737 
Q 1344 -625 1503 -206 
L 1606 56 
L 191 3500 
L 800 3500 
L 1894 763 
L 2988 3500 
L 3597 3500 
L 2059 -325 
z
" transform="scale(0.015625)"/>
      </defs>
      <use xlink:href="#DejaVuSans-70"/>
      <use xlink:href="#DejaVuSans-72" x="63.476562"/>
      <use xlink:href="#DejaVuSans-65" x="102.339844"/>
      <use xlink:href="#DejaVuSans-76" x="163.863281"/>
      <use xlink:href="#DejaVuSans-69" x="223.042969"/>
      <use xlink:href="#DejaVuSans-6f" x="250.826172"/>
      <use xlink:href="#DejaVuSans-75" x="312.007812"/>
      <use xlink:href="#DejaVuSans-73" x="375.386719"/>
      <use xlink:href="#DejaVuSans-5f" x="427.486328"/>
      <use xlink:href="#DejaVuSans-74" x="477.486328"/>
      <use xlink:href="#DejaVuSans-61" x="516.695312"/>
      <use xlink:href="#DejaVuSans-73" x="577.974609"/>
      <use xlink:href="#DejaVuSans-6b" x="630.074219"/>
      <use xlink:href="#DejaVuSans-73" x="687.984375"/>
      <use xlink:href="#DejaVuSans-5f" x="740.083984"/>
      <use xlink:href="#DejaVuSans-65" x="790.083984"/>
      <use xlink:href="#DejaVuSans-66" x="851.607422"/>
      <use xlink:href="#DejaVuSans-66" x="886.8125"/>
      <use xlink:href="#DejaVuSans-65" x="922.017578"/>
      <use xlink:href="#DejaVuSans-63" x="983.541016"/>
      <use xlink:href="#DejaVuSans-74" x="1038.521484"/>
      <use xlink:href="#DejaVuSans-69" x="1077.730469"/>
      <use xlink:href="#DejaVuSans-76" x="1105.513672"/>
      <use xlink:href="#DejaVuSans-65" x="1164.693359"/>
      <use xlink:href="#DejaVuSans-5f" x="1226.216797"/>
      <use xlink:href="#DejaVuSans-72" x="1276.216797"/>
      <use xlink:href="#DejaVuSans-61" x="1317.330078"/>
      <use xlink:href="#DejaVuSans-6e" x="1378.609375"/>
      <use xlink:href="#DejaVuSans-6b" x="1441.988281"/>
      <use xlink:href="#DejaVuSans-5f" x="1499.898438"/>
      <use xlink:href="#DejaVuSans-61" x="1549.898438"/>
      <use xlink:href="#DejaVuSans-6e" x="1611.177734"/>
      <use xlink:href="#DejaVuSans-61" x="1674.556641"/>
      <use xlink:href="#DejaVuSans-6c" x="1735.835938"/>
      <use xlink:href="#DejaVuSans-79" x="1763.619141"/>
      <use xlink:href="#DejaVuSans-73" x="1822.798828"/>
      <use xlink:href="#DejaVuSans-69" x="1874.898438"/>
      <use xlink:href="#DejaVuSans-73" x="1902.681641"/>
     </g>
    </g>
   </g>
   <g id="line2d_27">
    <path d="M 73.832727 295.488 
L 90.919809 156.541572 
L 108.00689 165.152175 
L 125.093971 174.76562 
L 142.181053 161.450949 
L 159.268134 151.960321 
L 176.355215 145.684688 
L 193.442297 114.416997 
L 210.529378 117.395627 
L 227.616459 100.034167 
L 244.703541 96.541058 
L 261.790622 83.75661 
L 278.877703 77.132821 
L 295.964785 76.49284 
L 313.051866 70.868918 
L 330.138947 65.462847 
L 347.226029 63.06066 
L 364.31311 56.465346 
L 381.400191 58.0729 
L 398.487273 53.568 
" clip-path="url(#p3ea46863a9)" style="fill: none; stroke: #d62728; stroke-linecap: square"/>
   </g>
   <g id="line2d_28">
    <path d="M 73.832727 295.488 
L 90.919809 274.676994 
L 108.00689 272.467685 
L 125.093971 270.955402 
L 142.181053 268.393957 
L 159.268134 267.112073 
L 176.355215 266.008231 
L 193.442297 264.358139 
L 210.529378 265.104994 
L 227.616459 263.956912 
L 244.703541 264.110835 
L 261.790622 262.543282 
L 278.877703 262.514639 
L 295.964785 262.434934 
L 313.051866 262.558939 
L 330.138947 262.447164 
L 347.226029 262.815985 
L 364.31311 261.809707 
L 381.400191 262.554809 
L 398.487273 260.948685 
" clip-path="url(#p3ea46863a9)" style="fill: none; stroke: #1f77b4; stroke-linecap: square"/>
   </g>
   <g id="line2d_29">
    <path d="M 73.832727 295.488 
L 90.919809 274.525034 
L 108.00689 273.011881 
L 125.093971 270.07813 
L 142.181053 267.11823 
L 159.268134 266.807178 
L 176.355215 265.585139 
L 193.442297 265.439369 
L 210.529378 263.172534 
L 227.616459 263.424115 
L 244.703541 262.359193 
L 261.790622 263.807677 
L 278.877703 263.484152 
L 295.964785 262.291764 
L 313.051866 261.832696 
L 330.138947 261.940086 
L 347.226029 262.970848 
L 364.31311 262.209742 
L 381.400191 261.492564 
L 398.487273 261.761305 
" clip-path="url(#p3ea46863a9)" style="fill: none; stroke: #7f7f7f; stroke-linecap: square"/>
   </g>
   <g id="line2d_30">
    <path d="M 73.832727 295.488 
L 90.919809 272.464753 
L 108.00689 273.092587 
L 125.093971 270.621895 
L 142.181053 268.593065 
L 159.268134 267.385962 
L 176.355215 264.778167 
L 193.442297 265.989321 
L 210.529378 265.015345 
L 227.616459 262.826363 
L 244.703541 263.875548 
L 261.790622 264.296386 
L 278.877703 263.026022 
L 295.964785 262.581966 
L 313.051866 262.30503 
L 330.138947 262.288397 
L 347.226029 262.135557 
L 364.31311 262.084415 
L 381.400191 262.087429 
L 398.487273 261.928531 
" clip-path="url(#p3ea46863a9)" style="fill: none; stroke: #2ca02c; stroke-linecap: square"/>
   </g>
   <g id="line2d_31">
    <path d="M 73.832727 295.488 
L 90.919809 275.641548 
L 108.00689 273.37462 
L 125.093971 270.89051 
L 142.181053 269.254044 
L 159.268134 266.858849 
L 176.355215 265.467955 
L 193.442297 266.060017 
L 210.529378 262.746213 
L 227.616459 263.857188 
L 244.703541 263.744583 
L 261.790622 263.347157 
L 278.877703 263.012852 
L 295.964785 262.418685 
L 313.051866 262.691827 
L 330.138947 262.945538 
L 347.226029 262.287999 
L 364.31311 261.614182 
L 381.400191 261.495445 
L 398.487273 262.692958 
" clip-path="url(#p3ea46863a9)" style="fill: none; stroke: #ff7f0e; stroke-linecap: square"/>
   </g>
   <g id="patch_3">
    <path d="M 57.6 307.584 
L 57.6 41.472 
" style="fill: none; stroke: #000000; stroke-width: 0.8; stroke-linejoin: miter; stroke-linecap: square"/>
   </g>
   <g id="patch_4">
    <path d="M 414.72 307.584 
L 414.72 41.472 
" style="fill: none; stroke: #000000; stroke-width: 0.8; stroke-linejoin: miter; stroke-linecap: square"/>
   </g>
   <g id="patch_5">
    <path d="M 57.6 307.584 
L 414.72 307.584 
" style="fill: none; stroke: #000000; stroke-width: 0.8; stroke-linejoin: miter; stroke-linecap: square"/>
   </g>
   <g id="patch_6">
    <path d="M 57.6 41.472 
L 414.72 41.472 
" style="fill: none; stroke: #000000; stroke-width: 0.8; stroke-linejoin: miter; stroke-linecap: square"/>
   </g>
   <g id="legend_1">
    <g id="patch_7">
     <path d="M 234.929375 213.418625 
L 407.72 213.418625 
Q 409.72 213.418625 409.72 211.418625 
L 409.72 137.637375 
Q 409.72 135.637375 407.72 135.637375 
L 234.929375 135.637375 
Q 232.929375 135.637375 232.929375 137.637375 
L 232.929375 211.418625 
Q 232.929375 213.418625 234.929375 213.418625 
z
" style="fill: #ffffff; opacity: 0.8; stroke: #cccccc; stroke-linejoin: miter"/>
    </g>
    <g id="line2d_32">
     <path d="M 236.929375 143.735813 
L 246.929375 143.735813 
L 256.929375 143.735813 
" style="fill: none; stroke: #d62728; stroke-linecap: square"/>
    </g>
    <g id="text_20">
     <!-- base_deep_learning_system -->
     <g transform="translate(264.929375 147.235813) scale(0.1 -0.1)">
      <defs>
       <path id="DejaVuSans-64" d="M 2906 2969 
L 2906 4863 
L 3481 4863 
L 3481 0 
L 2906 0 
L 2906 525 
Q 2725 213 2448 61 
Q 2172 -91 1784 -91 
Q 1150 -91 751 415 
Q 353 922 353 1747 
Q 353 2572 751 3078 
Q 1150 3584 1784 3584 
Q 2172 3584 2448 3432 
Q 2725 3281 2906 2969 
z
M 947 1747 
Q 947 1113 1208 752 
Q 1469 391 1925 391 
Q 2381 391 2643 752 
Q 2906 1113 2906 1747 
Q 2906 2381 2643 2742 
Q 2381 3103 1925 3103 
Q 1469 3103 1208 2742 
Q 947 2381 947 1747 
z
" transform="scale(0.015625)"/>
       <path id="DejaVuSans-67" d="M 2906 1791 
Q 2906 2416 2648 2759 
Q 2391 3103 1925 3103 
Q 1463 3103 1205 2759 
Q 947 2416 947 1791 
Q 947 1169 1205 825 
Q 1463 481 1925 481 
Q 2391 481 2648 825 
Q 2906 1169 2906 1791 
z
M 3481 434 
Q 3481 -459 3084 -895 
Q 2688 -1331 1869 -1331 
Q 1566 -1331 1297 -1286 
Q 1028 -1241 775 -1147 
L 775 -588 
Q 1028 -725 1275 -790 
Q 1522 -856 1778 -856 
Q 2344 -856 2625 -561 
Q 2906 -266 2906 331 
L 2906 616 
Q 2728 306 2450 153 
Q 2172 0 1784 0 
Q 1141 0 747 490 
Q 353 981 353 1791 
Q 353 2603 747 3093 
Q 1141 3584 1784 3584 
Q 2172 3584 2450 3431 
Q 2728 3278 2906 2969 
L 2906 3500 
L 3481 3500 
L 3481 434 
z
" transform="scale(0.015625)"/>
      </defs>
      <use xlink:href="#DejaVuSans-62"/>
      <use xlink:href="#DejaVuSans-61" x="63.476562"/>
      <use xlink:href="#DejaVuSans-73" x="124.755859"/>
      <use xlink:href="#DejaVuSans-65" x="176.855469"/>
      <use xlink:href="#DejaVuSans-5f" x="238.378906"/>
      <use xlink:href="#DejaVuSans-64" x="288.378906"/>
      <use xlink:href="#DejaVuSans-65" x="351.855469"/>
      <use xlink:href="#DejaVuSans-65" x="413.378906"/>
      <use xlink:href="#DejaVuSans-70" x="474.902344"/>
      <use xlink:href="#DejaVuSans-5f" x="538.378906"/>
      <use xlink:href="#DejaVuSans-6c" x="588.378906"/>
      <use xlink:href="#DejaVuSans-65" x="616.162109"/>
      <use xlink:href="#DejaVuSans-61" x="677.685547"/>
      <use xlink:href="#DejaVuSans-72" x="738.964844"/>
      <use xlink:href="#DejaVuSans-6e" x="778.328125"/>
      <use xlink:href="#DejaVuSans-69" x="841.707031"/>
      <use xlink:href="#DejaVuSans-6e" x="869.490234"/>
      <use xlink:href="#DejaVuSans-67" x="932.869141"/>
      <use xlink:href="#DejaVuSans-5f" x="996.345703"/>
      <use xlink:href="#DejaVuSans-73" x="1046.345703"/>
      <use xlink:href="#DejaVuSans-79" x="1098.445312"/>
      <use xlink:href="#DejaVuSans-73" x="1157.625"/>
      <use xlink:href="#DejaVuSans-74" x="1209.724609"/>
      <use xlink:href="#DejaVuSans-65" x="1248.933594"/>
      <use xlink:href="#DejaVuSans-6d" x="1310.457031"/>
     </g>
    </g>
    <g id="line2d_33">
     <path d="M 236.929375 158.692063 
L 246.929375 158.692063 
L 256.929375 158.692063 
" style="fill: none; stroke: #1f77b4; stroke-linecap: square"/>
    </g>
    <g id="text_21">
     <!-- continual_backpropagation -->
     <g transform="translate(264.929375 162.192063) scale(0.1 -0.1)">
      <use xlink:href="#DejaVuSans-63"/>
      <use xlink:href="#DejaVuSans-6f" x="54.980469"/>
      <use xlink:href="#DejaVuSans-6e" x="116.162109"/>
      <use xlink:href="#DejaVuSans-74" x="179.541016"/>
      <use xlink:href="#DejaVuSans-69" x="218.75"/>
      <use xlink:href="#DejaVuSans-6e" x="246.533203"/>
      <use xlink:href="#DejaVuSans-75" x="309.912109"/>
      <use xlink:href="#DejaVuSans-61" x="373.291016"/>
      <use xlink:href="#DejaVuSans-6c" x="434.570312"/>
      <use xlink:href="#DejaVuSans-5f" x="462.353516"/>
      <use xlink:href="#DejaVuSans-62" x="512.353516"/>
      <use xlink:href="#DejaVuSans-61" x="575.830078"/>
      <use xlink:href="#DejaVuSans-63" x="637.109375"/>
      <use xlink:href="#DejaVuSans-6b" x="692.089844"/>
      <use xlink:href="#DejaVuSans-70" x="750"/>
      <use xlink:href="#DejaVuSans-72" x="813.476562"/>
      <use xlink:href="#DejaVuSans-6f" x="852.339844"/>
      <use xlink:href="#DejaVuSans-70" x="913.521484"/>
      <use xlink:href="#DejaVuSans-61" x="976.998047"/>
      <use xlink:href="#DejaVuSans-67" x="1038.277344"/>
      <use xlink:href="#DejaVuSans-61" x="1101.753906"/>
      <use xlink:href="#DejaVuSans-74" x="1163.033203"/>
      <use xlink:href="#DejaVuSans-69" x="1202.242188"/>
      <use xlink:href="#DejaVuSans-6f" x="1230.025391"/>
      <use xlink:href="#DejaVuSans-6e" x="1291.207031"/>
     </g>
    </g>
    <g id="line2d_34">
     <path d="M 236.929375 173.648313 
L 246.929375 173.648313 
L 256.929375 173.648313 
" style="fill: none; stroke: #7f7f7f; stroke-linecap: square"/>
    </g>
    <g id="text_22">
     <!-- retrained_network -->
     <g transform="translate(264.929375 177.148313) scale(0.1 -0.1)">
      <defs>
       <path id="DejaVuSans-77" d="M 269 3500 
L 844 3500 
L 1563 769 
L 2278 3500 
L 2956 3500 
L 3675 769 
L 4391 3500 
L 4966 3500 
L 4050 0 
L 3372 0 
L 2619 2869 
L 1863 0 
L 1184 0 
L 269 3500 
z
" transform="scale(0.015625)"/>
      </defs>
      <use xlink:href="#DejaVuSans-72"/>
      <use xlink:href="#DejaVuSans-65" x="38.863281"/>
      <use xlink:href="#DejaVuSans-74" x="100.386719"/>
      <use xlink:href="#DejaVuSans-72" x="139.595703"/>
      <use xlink:href="#DejaVuSans-61" x="180.708984"/>
      <use xlink:href="#DejaVuSans-69" x="241.988281"/>
      <use xlink:href="#DejaVuSans-6e" x="269.771484"/>
      <use xlink:href="#DejaVuSans-65" x="333.150391"/>
      <use xlink:href="#DejaVuSans-64" x="394.673828"/>
      <use xlink:href="#DejaVuSans-5f" x="458.150391"/>
      <use xlink:href="#DejaVuSans-6e" x="508.150391"/>
      <use xlink:href="#DejaVuSans-65" x="571.529297"/>
      <use xlink:href="#DejaVuSans-74" x="633.052734"/>
      <use xlink:href="#DejaVuSans-77" x="672.261719"/>
      <use xlink:href="#DejaVuSans-6f" x="754.048828"/>
      <use xlink:href="#DejaVuSans-72" x="815.230469"/>
      <use xlink:href="#DejaVuSans-6b" x="856.34375"/>
     </g>
    </g>
    <g id="line2d_35">
     <path d="M 236.929375 188.604563 
L 246.929375 188.604563 
L 256.929375 188.604563 
" style="fill: none; stroke: #2ca02c; stroke-linecap: square"/>
    </g>
    <g id="text_23">
     <!-- head_resetting -->
     <g transform="translate(264.929375 192.104563) scale(0.1 -0.1)">
      <defs>
       <path id="DejaVuSans-68" d="M 3513 2113 
L 3513 0 
L 2938 0 
L 2938 2094 
Q 2938 2591 2744 2837 
Q 2550 3084 2163 3084 
Q 1697 3084 1428 2787 
Q 1159 2491 1159 1978 
L 1159 0 
L 581 0 
L 581 4863 
L 1159 4863 
L 1159 2956 
Q 1366 3272 1645 3428 
Q 1925 3584 2291 3584 
Q 2894 3584 3203 3211 
Q 3513 2838 3513 2113 
z
" transform="scale(0.015625)"/>
      </defs>
      <use xlink:href="#DejaVuSans-68"/>
      <use xlink:href="#DejaVuSans-65" x="63.378906"/>
      <use xlink:href="#DejaVuSans-61" x="124.902344"/>
      <use xlink:href="#DejaVuSans-64" x="186.181641"/>
      <use xlink:href="#DejaVuSans-5f" x="249.658203"/>
      <use xlink:href="#DejaVuSans-72" x="299.658203"/>
      <use xlink:href="#DejaVuSans-65" x="338.521484"/>
      <use xlink:href="#DejaVuSans-73" x="400.044922"/>
      <use xlink:href="#DejaVuSans-65" x="452.144531"/>
      <use xlink:href="#DejaVuSans-74" x="513.667969"/>
      <use xlink:href="#DejaVuSans-74" x="552.876953"/>
      <use xlink:href="#DejaVuSans-69" x="592.085938"/>
      <use xlink:href="#DejaVuSans-6e" x="619.869141"/>
      <use xlink:href="#DejaVuSans-67" x="683.248047"/>
     </g>
    </g>
    <g id="line2d_36">
     <path d="M 236.929375 203.560812 
L 246.929375 203.560812 
L 256.929375 203.560812 
" style="fill: none; stroke: #ff7f0e; stroke-linecap: square"/>
    </g>
    <g id="text_24">
     <!-- shrink_and_perturb -->
     <g transform="translate(264.929375 207.060812) scale(0.1 -0.1)">
      <use xlink:href="#DejaVuSans-73"/>
      <use xlink:href="#DejaVuSans-68" x="52.099609"/>
      <use xlink:href="#DejaVuSans-72" x="115.478516"/>
      <use xlink:href="#DejaVuSans-69" x="156.591797"/>
      <use xlink:href="#DejaVuSans-6e" x="184.375"/>
      <use xlink:href="#DejaVuSans-6b" x="247.753906"/>
      <use xlink:href="#DejaVuSans-5f" x="305.664062"/>
      <use xlink:href="#DejaVuSans-61" x="355.664062"/>
      <use xlink:href="#DejaVuSans-6e" x="416.943359"/>
      <use xlink:href="#DejaVuSans-64" x="480.322266"/>
      <use xlink:href="#DejaVuSans-5f" x="543.798828"/>
      <use xlink:href="#DejaVuSans-70" x="593.798828"/>
      <use xlink:href="#DejaVuSans-65" x="657.275391"/>
      <use xlink:href="#DejaVuSans-72" x="718.798828"/>
      <use xlink:href="#DejaVuSans-74" x="759.912109"/>
      <use xlink:href="#DejaVuSans-75" x="799.121094"/>
      <use xlink:href="#DejaVuSans-72" x="862.5"/>
      <use xlink:href="#DejaVuSans-62" x="903.613281"/>
     </g>
    </g>
   </g>
  </g>
 </g>
 <defs>
  <clipPath id="p3ea46863a9">
   <rect x="57.6" y="41.472" width="357.12" height="266.112"/>
  </clipPath>
 </defs>
</svg>
